<svg width="34" height="34" viewBox="0 0 34 34" fill="none" xmlns="http://www.w3.org/2000/svg">
<path fill-rule="evenodd" clip-rule="evenodd" d="M4 0C1.79086 0 0 1.79086 0 4V30C0 32.2091 1.79086 34 4 34H30C32.2091 34 34 32.2091 34 30V4C34 1.79086 32.2091 0 30 0H4ZM24.8992 7.30078H8.69922C7.7051 7.30078 6.89922 8.10667 6.89922 9.10078C6.89922 10.0949 7.7051 10.9008 8.69922 10.9008H20.5536L7.72721 23.7272C7.02426 24.4302 7.02426 25.5698 7.72721 26.2728C8.43015 26.9757 9.56985 26.9757 10.2728 26.2728L23.0992 13.4464V25.3008C23.0992 26.2949 23.9051 27.1008 24.8992 27.1008C25.8933 27.1008 26.6992 26.2949 26.6992 25.3008V9.10078C26.6992 8.10667 25.8933 7.30078 24.8992 7.30078Z" fill="white"/>
</svg>
