<svg width="32" height="32" viewBox="0 0 32 32" fill="none" xmlns="http://www.w3.org/2000/svg">
<path fill-rule="evenodd" clip-rule="evenodd" d="M16 32C24.8366 32 32 24.8366 32 16C32 7.16344 24.8366 0 16 0C7.16344 0 0 7.16344 0 16C0 24.8366 7.16344 32 16 32ZM15.6591 8.67258L9.93149 14.4001C9.58002 14.7516 9.58002 15.3215 9.93149 15.6729C10.283 16.0244 10.8528 16.0244 11.2043 15.6729L15.3955 11.4818L15.3955 23.2726H17.1955V11.4818L21.3866 15.6729C21.7381 16.0244 22.3079 16.0244 22.6594 15.6729C23.0109 15.3215 23.0109 14.7516 22.6594 14.4001L16.9318 8.67258C16.5804 8.32111 16.0105 8.32111 15.6591 8.67258Z" fill="white"/>
</svg>
