<svg width="430" height="133" viewBox="0 0 430 133" fill="none" xmlns="http://www.w3.org/2000/svg">
<path d="M42.7494 130.016C21.6282 135.92 7.43469 123.928 7.43469 103.819C7.43469 98.2845 8.61748 93.4878 9.80027 87.5843L17.5729 51.6095L0 47.3663L2.70352 33.1609L20.6144 37.5885L25.6835 13.7898L41.0597 17.2951L35.9906 41.2783L57.4498 46.4439L54.7463 60.6493L32.9492 55.2992L25.1765 91.0895C21.4592 108.431 26.5283 120.238 44.1012 115.442L42.7494 130.016Z" fill="white"/>
<path d="M101.861 132.599C79.0503 132.599 62.9981 114.888 62.9981 90.1671C62.9981 60.4648 85.8091 34.6368 113.013 34.6368C135.824 34.6368 151.876 52.3474 151.876 76.8841C151.876 106.402 129.065 132.599 101.861 132.599ZM78.8813 90.3516C78.8813 106.402 88.3436 117.471 102.199 117.471C121.293 117.471 135.824 96.8086 135.824 76.6996C135.824 60.8338 126.531 49.7646 112.675 49.7646C93.7507 49.7646 78.8813 70.2426 78.8813 90.3516Z" fill="white"/>
<path d="M168.039 129.647V37.5885H184.092L183.585 60.4648C186.964 44.599 196.595 35.1902 211.634 35.1902C225.996 35.1902 236.303 44.23 240.021 59.3579C243.569 44.0456 253.538 35.1902 268.408 35.1902C286.487 35.1902 297.977 49.3956 297.977 72.0874V129.647H281.925V75.5927C281.925 58.8044 275.166 49.3957 263.001 49.3957C249.314 49.3957 241.541 61.0183 241.541 82.0497V129.647H225.658V75.5927C225.658 58.8044 218.562 49.3957 206.058 49.3957C191.864 49.3957 184.092 61.0183 184.092 82.0497V129.647H168.039Z" fill="white"/>
<path d="M351.2 129.647V0.506836H367.084V78.1755L410.171 37.5885H429.265L392.936 72.6409L426.73 129.647H408.819L381.784 83.5256L367.084 97.5465V129.647H351.2Z" fill="white"/>
</svg>
