<svg width="101" height="132" viewBox="0 0 101 132" fill="none" xmlns="http://www.w3.org/2000/svg">
<path d="M99.958 69.6555C100.405 61.1018 97.7755 51.6788 94.6717 45.759C83.6519 22.7578 58.8304 6.91952 49.4833 0.330372C48.2757 -0.521523 46.5405 0.443379 46.8714 1.79946C48.5977 8.91017 43.8571 33.9367 32.6315 36.2751C28.2307 37.1966 24.9928 32.6589 27.1663 26.1132C27.5688 24.9136 26.0572 23.9748 24.9212 24.6963C-2.16323 41.7603 -0.00756543 64.6919 0.0818812 68.9688V69.6555C0.976348 86.3022 9.95679 99.5153 23.4453 106.6L0.323387 129.236C-0.347463 129.897 0.126605 131.009 1.08368 131.009H37.2917C37.5869 131.009 37.8641 130.888 38.0699 130.688L49.0003 121.273C49.4207 120.908 50.0557 120.908 50.4761 121.273L61.4065 130.688C61.6122 130.896 61.8895 131.009 62.1847 131.009H98.3927C99.3498 131.009 99.8238 129.888 99.153 129.236L76.0221 106.6C89.8953 99.2806 99.1798 85.6068 99.958 69.6555ZM50.011 90.1531C40.4134 90.1531 32.6315 82.5904 32.6315 73.263C32.6315 63.9356 40.4134 56.3729 50.011 56.3729C59.6086 56.3729 67.3905 63.9356 67.3905 73.263C67.3905 82.5904 59.6086 90.1531 50.011 90.1531Z" fill="white"/>
</svg>
