<svg width="54" height="43" viewBox="0 0 54 43" fill="none" xmlns="http://www.w3.org/2000/svg">
<circle cx="21.5" cy="21.5" r="21.5" fill="#9D81F7" fill-opacity="0.2"/>
<circle cx="21.5" cy="21.5" r="21.25" stroke="#8B67FF" stroke-opacity="0.4" stroke-width="0.5"/>
<path fill-rule="evenodd" clip-rule="evenodd" d="M23.1364 27.2766C25.96 26.4766 28.0299 23.8639 28.0299 20.7643C28.0299 17.0285 25.023 14 21.3138 14C17.6046 14 14.5977 17.0285 14.5977 20.7643C14.5977 23.865 16.6689 26.4783 19.494 27.2774L21.3148 29.1113L23.1364 27.2766Z" fill="#F1D186"/>
<g clip-path="url(#clip0_1441_7453)">
<path d="M24.7943 22.1898C25.103 21.975 25.3053 21.6387 25.3053 21.2562C25.3053 20.6065 24.7301 20.0799 24.0208 20.0799H23.7698C24.0092 19.8882 24.1635 19.6097 24.1635 19.2956C24.1635 18.7181 23.6524 18.25 23.0218 18.25H22.9169C22.9806 18.0858 23.0218 17.9115 23.0218 17.7272C23.0218 16.8609 22.255 16.1587 21.3092 16.1587C21.2169 16.1587 21.1281 16.1708 21.0396 16.1835C21.2077 16.3979 21.3092 16.659 21.3092 16.9429C21.3092 17.6648 20.6701 18.25 19.882 18.25H19.5965C18.9659 18.25 18.4548 18.7181 18.4548 19.2956C18.4548 19.6097 18.6091 19.8882 18.8485 20.0799H18.5975C17.8882 20.0799 17.3131 20.6065 17.3131 21.2562C17.3131 21.6387 17.5154 21.975 17.824 22.1898C17.2116 22.2793 16.7422 22.7613 16.7422 23.3475C16.7422 23.9971 17.3173 24.5239 18.0267 24.5239H24.5917C25.301 24.5239 25.8761 23.9971 25.8761 23.3475C25.8761 22.7613 25.4068 22.2793 24.7943 22.1898Z" fill="#8B4513"/>
</g>
<path opacity="0.72" d="M49.335 8.52922L38.5475 22.0874L32.1555 10.7785L49.335 8.52922Z" fill="url(#paint0_linear_1441_7453)"/>
<circle cx="48" cy="9" r="3.75" fill="#2563EB" stroke="#D1D5DB" stroke-width="0.5"/>
<defs>
<linearGradient id="paint0_linear_1441_7453" x1="49.335" y1="8.52922" x2="36.5" y2="16" gradientUnits="userSpaceOnUse">
<stop offset="0.293068" stop-color="#2563EB"/>
<stop offset="1" stop-color="#2563EB" stop-opacity="0"/>
</linearGradient>
<clipPath id="clip0_1441_7453">
<rect width="9.13396" height="8.3652" fill="white" transform="translate(16.7422 16.1587)"/>
</clipPath>
</defs>
</svg>
