<svg width="28" height="25" viewBox="0 0 28 25" fill="none" xmlns="http://www.w3.org/2000/svg">
<g clip-path="url(#clip0_126_800)">
<path d="M23.9785 17.96C24.8976 17.3202 25.5 16.319 25.5 15.18C25.5 13.245 23.7873 11.6769 21.675 11.6769H20.9275C21.6405 11.1062 22.1 10.2766 22.1 9.34152C22.1 7.62161 20.578 6.22768 18.7 6.22768H18.3876C18.5773 5.73871 18.7 5.21957 18.7 4.67076C18.7 2.09114 16.4167 0 13.6 0C13.3253 0 13.0608 0.0360038 12.7973 0.0739537C13.2977 0.712291 13.6 1.48978 13.6 2.33538C13.6 4.4849 11.6971 6.22768 9.35 6.22768H8.5C6.62203 6.22768 5.1 7.62161 5.1 9.34152C5.1 10.2766 5.55953 11.1062 6.27247 11.6769H5.525C3.41275 11.6769 1.7 13.245 1.7 15.18C1.7 16.319 2.30244 17.3202 3.2215 17.96C1.39772 18.2267 0 19.6619 0 21.4076C0 23.3421 1.71275 24.9107 3.825 24.9107H23.375C25.4873 24.9107 27.2 23.3421 27.2 21.4076C27.2 19.6619 25.8023 18.2267 23.9785 17.96Z" fill="#8B4513"/>
</g>
<defs>
<clipPath id="clip0_126_800">
<rect width="27.2" height="24.9107" fill="white"/>
</clipPath>
</defs>
</svg>
