<svg width="21" height="21" viewBox="0 0 21 21" fill="none" xmlns="http://www.w3.org/2000/svg">
<path fill-rule="evenodd" clip-rule="evenodd" d="M10.5 21C16.299 21 21 16.299 21 10.5C21 4.70101 16.299 0 10.5 0C4.70101 0 0 4.70101 0 10.5C0 16.299 4.70101 21 10.5 21ZM6.21947 6.21995C6.51223 5.92699 6.98705 5.92683 7.28001 6.21959L10.498 9.43546L13.7161 6.21959C14.009 5.92683 14.4839 5.92699 14.7766 6.21995C15.0694 6.51291 15.0692 6.98774 14.7763 7.2805L11.559 10.4956L14.7733 13.7078C15.0663 14.0006 15.0664 14.4754 14.7737 14.7684C14.4809 15.0613 14.0061 15.0615 13.7131 14.7687L10.498 11.5558L7.28297 14.7687C6.99001 15.0615 6.51519 15.0613 6.22243 14.7684C5.92966 14.4754 5.92982 14.0006 6.22278 13.7078L9.43714 10.4956L6.21983 7.2805C5.92686 6.98774 5.9267 6.51291 6.21947 6.21995Z" fill="white"/>
</svg>
