<svg width="104" height="224" viewBox="0 0 104 224" fill="none" xmlns="http://www.w3.org/2000/svg">
<g clip-path="url(#clip0_149_3212)">
<path d="M51.0642 13.1939C48.6522 13.1939 46.9062 11.2319 46.9062 8.45986C46.9062 5.70586 48.6522 3.74386 51.0642 3.74386C52.4682 3.74386 53.5842 4.39186 54.2502 5.50786V0.359863H55.9602V11.0339V12.9599H54.2502V11.4119C53.5842 12.5459 52.4682 13.1939 51.0642 13.1939ZM48.6342 8.45986C48.6342 10.3859 49.8402 11.7899 51.4962 11.7899C53.1702 11.7899 54.3402 10.4399 54.3402 8.45986C54.3402 6.49786 53.1702 5.14786 51.4962 5.14786C49.8402 5.14786 48.6342 6.53386 48.6342 8.45986Z" fill="#1A1A1A"/>
<path d="M57.5742 12.888L59.7342 3.744L61.4262 4.05L59.2482 13.194L57.5742 12.888ZM58.4562 1.224C58.4562 0.54 58.9782 0 59.6802 0C60.3642 0 60.8862 0.54 60.8862 1.224C60.8862 1.926 60.3642 2.448 59.6802 2.448C58.9782 2.448 58.4562 1.926 58.4562 1.224Z" fill="#1A1A1A"/>
<path d="M67.5188 16.668C65.4128 16.668 63.5228 15.534 63.1808 13.824L64.8548 13.698C65.1608 14.688 66.3488 15.318 67.5728 15.318C69.0308 15.318 70.3628 14.418 70.3628 12.528V10.998C69.8768 12.132 68.6348 13.032 67.0508 13.032C64.5488 13.032 62.5508 11.052 62.5508 8.37001C62.5508 5.74201 64.4768 3.70801 67.0508 3.70801C68.5988 3.70801 69.9128 4.55401 70.4348 5.81401V3.97801H72.0548V12.258C72.0548 15.372 69.7868 16.668 67.5188 16.668ZM64.2788 8.37001C64.2788 10.17 65.5928 11.592 67.3748 11.592C69.1208 11.592 70.4528 10.188 70.4528 8.37001C70.4528 6.60601 69.1568 5.14801 67.3748 5.14801C65.6288 5.14801 64.2788 6.49801 64.2788 8.37001Z" fill="#1A1A1A"/>
<path d="M73.7109 12.888L75.8709 3.744L77.5629 4.05L75.3849 13.194L73.7109 12.888ZM74.5929 1.224C74.5929 0.54 75.1149 0 75.8169 0C76.5009 0 77.0229 0.54 77.0229 1.224C77.0229 1.926 76.5009 2.448 75.8169 2.448C75.1149 2.448 74.5929 1.926 74.5929 1.224Z" fill="#1A1A1A"/>
<path d="M83.4017 12.9958C81.1517 13.5718 79.6397 12.4018 79.6397 10.4398C79.6397 9.89976 79.7657 9.43176 79.8917 8.85576L80.7197 5.34576L78.8477 4.93176L79.1357 3.54576L81.0437 3.97776L81.5837 1.65576L83.2217 1.99776L82.6817 4.33776L84.9677 4.84176L84.6797 6.22776L82.3577 5.70576L81.5297 9.19776C81.1337 10.8898 81.6737 12.0418 83.5457 11.5738L83.4017 12.9958Z" fill="#1A1A1A"/>
<path d="M88.8637 13.1578C87.2977 13.1578 86.0197 12.2398 86.0197 10.6738C86.0197 9.03581 87.3877 8.00981 90.2677 7.72181L91.9057 7.55981V7.23581C91.9057 5.75981 90.8617 5.05781 89.7817 5.05781C88.7557 5.05781 87.7117 5.70581 87.5677 7.03781L85.9297 7.01981C86.0917 4.80581 87.9637 3.72581 89.8177 3.70781C91.7077 3.67181 93.5977 4.87781 93.5977 7.32581V10.3858C93.5977 11.3578 93.7057 12.3298 93.8317 12.9598H92.1577C92.0677 12.5638 91.9957 12.0418 91.9957 11.1058C91.5997 12.4378 90.1957 13.1578 88.8637 13.1578ZM87.7117 10.5658C87.7117 11.5198 88.5037 11.9878 89.3857 11.9878C90.5737 11.9878 91.9237 11.1238 91.9237 9.32381V8.62181L90.4477 8.78381C88.5937 8.99981 87.7117 9.59381 87.7117 10.5658Z" fill="#1A1A1A"/>
<path d="M98.0533 13.0502C96.3253 13.0502 95.2812 12.0962 95.2812 10.5662C95.2812 9.99018 95.4073 9.36018 95.9473 8.10018L99.2053 0.180176L100.699 0.774176L97.4413 8.69418C97.0633 9.50418 96.9733 9.91818 96.9733 10.3142C96.9733 11.1422 97.5133 11.6282 98.4673 11.6282C98.6833 11.6282 98.8453 11.5922 98.9893 11.5562L98.8633 12.9422C98.6293 12.9962 98.3413 13.0502 98.0533 13.0502Z" fill="#1A1A1A"/>
<path d="M39.7227 39.3801V26.9781H41.4327V28.4901C42.0987 27.3741 43.2147 26.7441 44.6007 26.7441C47.0127 26.7441 48.7587 28.7061 48.7587 31.4781C48.7587 34.2321 47.0127 36.1941 44.6007 36.1941C43.2147 36.1941 42.0987 35.5641 41.4327 34.4481V39.3801H39.7227ZM41.3247 31.4781C41.3247 33.4401 42.4947 34.7901 44.1687 34.7901C45.8247 34.7901 47.0307 33.4041 47.0307 31.4781C47.0307 29.5521 45.8247 28.1481 44.1687 28.1481C42.4947 28.1481 41.3247 29.4981 41.3247 31.4781Z" fill="#1A1A1A"/>
<path d="M51.8681 36.3198L49.9961 27.5358L51.6701 27.1758L52.1921 29.8218C52.1741 27.7518 53.4341 26.5818 55.2341 26.5278L55.5941 28.1838C53.5961 28.2918 52.1921 29.6238 52.7321 32.1798L53.5421 35.9598L51.8681 36.3198Z" fill="#1A1A1A"/>
<path d="M60.2728 36.2479C57.8428 36.2479 56.1328 34.5199 56.1328 32.1079C56.1328 29.2099 58.5628 26.6899 61.4608 26.6899C63.8908 26.6899 65.6008 28.4179 65.6008 30.8119C65.6008 33.6919 63.1708 36.2479 60.2728 36.2479ZM57.8248 32.1259C57.8248 33.6919 58.8328 34.7719 60.3088 34.7719C62.3428 34.7719 63.8908 32.7559 63.8908 30.7939C63.8908 29.2459 62.9008 28.1659 61.4248 28.1659C59.4088 28.1659 57.8248 30.1639 57.8248 32.1259Z" fill="#1A1A1A"/>
<path d="M71.2088 36.1939C68.7968 36.1939 67.0508 34.2319 67.0508 31.4599C67.0508 28.7059 68.7968 26.7439 71.2088 26.7439C72.6128 26.7439 73.7288 27.3919 74.3948 28.5079V23.3599H76.1048V34.0339V35.9599H74.3948V34.4119C73.7288 35.5459 72.6128 36.1939 71.2088 36.1939ZM68.7788 31.4599C68.7788 33.3859 69.9848 34.7899 71.6408 34.7899C73.3148 34.7899 74.4848 33.4399 74.4848 31.4599C74.4848 29.4979 73.3148 28.1479 71.6408 28.1479C69.9848 28.1479 68.7788 29.5339 68.7788 31.4599Z" fill="#1A1A1A"/>
<path d="M79.8248 32.252C79.8248 33.89 80.5628 34.808 81.8768 34.808C83.3528 34.808 84.1808 33.674 84.1808 31.622V26.978H85.8908V32.72V35.96H84.1808L84.2348 34.214C83.7668 35.474 82.7588 36.194 81.3008 36.194C79.3748 36.194 78.1328 34.808 78.1328 32.576V26.978H79.8248V32.252Z" fill="#1A1A1A"/>
<path d="M92.2775 36.23C89.6135 36.23 87.6875 34.232 87.6875 31.46C87.6875 28.724 89.6315 26.708 92.2775 26.708C94.5635 26.708 96.3995 28.184 96.5435 30.308L94.8695 30.452C94.7255 29.138 93.6275 28.184 92.2595 28.184C90.6035 28.184 89.3975 29.57 89.3975 31.46C89.3975 33.584 90.7655 34.718 92.2595 34.718C93.5555 34.718 94.7255 33.854 94.8875 32.396L96.5615 32.522C96.4355 34.718 94.5995 36.23 92.2775 36.23Z" fill="#1A1A1A"/>
<path d="M102.315 35.9958C100.065 36.5718 98.5537 35.4018 98.5537 33.4398C98.5537 32.8998 98.6797 32.4318 98.8057 31.8558L99.6337 28.3458L97.7617 27.9318L98.0497 26.5458L99.9577 26.9778L100.497 24.6558L102.135 24.9978L101.595 27.3378L103.881 27.8418L103.593 29.2278L101.271 28.7058L100.443 32.1978C100.047 33.8898 100.587 35.0418 102.459 34.5738L102.315 35.9958Z" fill="#1A1A1A"/>
<path d="M34.9822 59.1939C32.5702 59.1939 30.8242 57.2319 30.8242 54.4599C30.8242 51.7059 32.5702 49.7439 34.9822 49.7439C36.3862 49.7439 37.5022 50.3919 38.1682 51.5079V46.3599H39.8782V57.0339V58.9599H38.1682V57.4119C37.5022 58.5459 36.3862 59.1939 34.9822 59.1939ZM32.5522 54.4599C32.5522 56.3859 33.7582 57.7899 35.4142 57.7899C37.0882 57.7899 38.2582 56.4399 38.2582 54.4599C38.2582 52.4979 37.0882 51.1479 35.4142 51.1479C33.7582 51.1479 32.5522 52.5339 32.5522 54.4599Z" fill="#1A1A1A"/>
<path d="M46.2563 59.2658C43.6283 59.2658 41.7383 57.2498 41.7383 54.4598C41.7383 51.6878 43.6283 49.6538 46.2383 49.6538C49.3343 49.6538 50.8463 52.4438 50.5223 54.9458H43.4663C43.5203 56.6918 44.6723 57.9338 46.2743 57.9338C47.5163 57.9338 48.5603 57.2138 48.9023 56.1338L50.3603 56.3678C49.9643 58.0238 48.3443 59.2658 46.2563 59.2658ZM43.4843 53.6678H48.8663C48.8663 52.1378 47.8043 50.9498 46.2383 50.9498C44.7443 50.9498 43.6283 52.0658 43.4843 53.6678Z" fill="#1A1A1A"/>
<path d="M56.3402 59.2658C54.3962 59.2658 52.9202 58.3298 52.5062 56.7458L54.0722 56.4038C54.3422 57.4298 55.2422 58.0418 56.4122 58.0418C57.6542 58.0418 58.5182 57.3938 58.5182 56.4938C58.5182 55.7018 57.8702 55.2698 56.7182 55.2338L55.1342 55.1798C53.1542 55.1438 52.0742 54.1178 52.0742 52.6418C52.0742 50.8778 53.5862 49.6538 55.7102 49.6538C57.5462 49.6538 58.9142 50.6078 59.2922 52.1738L57.7802 52.5338C57.5462 51.4898 56.6462 50.8778 55.5842 50.8778C54.4862 50.8778 53.6762 51.5438 53.6762 52.4438C53.6762 53.0558 54.1082 53.6138 55.2062 53.6858L56.7902 53.7218C58.7882 53.7398 60.1562 54.6398 60.1562 56.2778C60.1562 58.0598 58.5722 59.2658 56.3402 59.2658Z" fill="#1A1A1A"/>
<path d="M61.3711 58.888L63.5311 49.744L65.2231 50.05L63.0451 59.194L61.3711 58.888ZM62.2531 47.224C62.2531 46.54 62.7751 46 63.4771 46C64.1611 46 64.6831 46.54 64.6831 47.224C64.6831 47.926 64.1611 48.448 63.4771 48.448C62.7751 48.448 62.2531 47.926 62.2531 47.224Z" fill="#1A1A1A"/>
<path d="M71.3157 62.668C69.2097 62.668 67.3197 61.534 66.9777 59.824L68.6517 59.698C68.9577 60.688 70.1457 61.318 71.3697 61.318C72.8277 61.318 74.1597 60.418 74.1597 58.528V56.998C73.6737 58.132 72.4317 59.032 70.8477 59.032C68.3457 59.032 66.3477 57.052 66.3477 54.37C66.3477 51.742 68.2737 49.708 70.8477 49.708C72.3957 49.708 73.7097 50.554 74.2317 51.814V49.978H75.8517V58.258C75.8517 61.372 73.5837 62.668 71.3157 62.668ZM68.0757 54.37C68.0757 56.17 69.3897 57.592 71.1717 57.592C72.9177 57.592 74.2497 56.188 74.2497 54.37C74.2497 52.606 72.9537 51.148 71.1717 51.148C69.4257 51.148 68.0757 52.498 68.0757 54.37Z" fill="#1A1A1A"/>
<path d="M77.9727 58.9601V49.9781H79.6827L79.6287 52.1741C80.0067 50.6441 81.0327 49.7441 82.6167 49.7441C84.5967 49.7441 85.8567 51.1661 85.8567 53.4341V58.9601H84.1467V53.6861C84.1467 52.0481 83.3907 51.1301 82.0407 51.1301C80.5107 51.1301 79.6827 52.2641 79.6827 54.3161V58.9601H77.9727Z" fill="#1A1A1A"/>
<path d="M92.1196 59.2658C89.4916 59.2658 87.6016 57.2498 87.6016 54.4598C87.6016 51.6878 89.4916 49.6538 92.1016 49.6538C95.1976 49.6538 96.7096 52.4438 96.3856 54.9458H89.3296C89.3836 56.6918 90.5356 57.9338 92.1376 57.9338C93.3796 57.9338 94.4236 57.2138 94.7656 56.1338L96.2236 56.3678C95.8276 58.0238 94.2076 59.2658 92.1196 59.2658ZM89.3476 53.6678H94.7296C94.7296 52.1378 93.6676 50.9498 92.1016 50.9498C90.6076 50.9498 89.4916 52.0658 89.3476 53.6678Z" fill="#1A1A1A"/>
<path d="M99.4892 59.3198L97.6172 50.5358L99.2912 50.1758L99.8132 52.8218C99.7952 50.7518 101.056 49.5818 102.856 49.5278L103.216 51.1838C101.218 51.2918 99.8132 52.6238 100.354 55.1798L101.164 58.9598L99.4892 59.3198Z" fill="#1A1A1A"/>
<path d="M34.75 85.3801V72.9781H36.46V74.4901C37.126 73.3741 38.242 72.7441 39.628 72.7441C42.04 72.7441 43.786 74.7061 43.786 77.4781C43.786 80.2321 42.04 82.1941 39.628 82.1941C38.242 82.1941 37.126 81.5641 36.46 80.4481V85.3801H34.75ZM36.352 77.4781C36.352 79.4401 37.522 80.7901 39.196 80.7901C40.852 80.7901 42.058 79.4041 42.058 77.4781C42.058 75.5521 40.852 74.1481 39.196 74.1481C37.522 74.1481 36.352 75.4981 36.352 77.4781Z" fill="#1A1A1A"/>
<path d="M49.39 82.2479C46.96 82.2479 45.25 80.5199 45.25 78.1079C45.25 75.2099 47.68 72.6899 50.578 72.6899C53.008 72.6899 54.718 74.4179 54.718 76.8119C54.718 79.6919 52.288 82.2479 49.39 82.2479ZM46.942 78.1259C46.942 79.6919 47.95 80.7719 49.426 80.7719C51.46 80.7719 53.008 78.7559 53.008 76.7939C53.008 75.2459 52.018 74.1659 50.542 74.1659C48.526 74.1659 46.942 76.1639 46.942 78.1259Z" fill="#1A1A1A"/>
<path d="M57.7236 82.3198L55.8516 73.5358L57.5256 73.1758L58.0476 75.8218C58.0296 73.7518 59.2896 72.5818 61.0896 72.5278L61.4496 74.1838C59.4516 74.2918 58.0476 75.6238 58.5876 78.1798L59.3976 81.9598L57.7236 82.3198Z" fill="#1A1A1A"/>
<path d="M67.386 81.9958C65.136 82.5718 63.624 81.4018 63.624 79.4398C63.624 78.8998 63.75 78.4318 63.876 77.8558L64.704 74.3458L62.832 73.9318L63.12 72.5458L65.028 72.9778L65.568 70.6558L67.206 70.9978L66.666 73.3378L68.952 73.8418L68.664 75.2278L66.342 74.7058L65.514 78.1978C65.118 79.8898 65.658 81.0418 67.53 80.5738L67.386 81.9958Z" fill="#1A1A1A"/>
<path d="M72.0025 82.0502C70.2745 82.0502 69.2305 81.0962 69.2305 79.5662C69.2305 78.9902 69.3565 78.3602 69.8965 77.1002L73.1545 69.1802L74.6485 69.7742L71.3905 77.6942C71.0125 78.5042 70.9225 78.9182 70.9225 79.3142C70.9225 80.1422 71.4625 80.6282 72.4165 80.6282C72.6325 80.6282 72.7945 80.5922 72.9385 80.5562L72.8125 81.9422C72.5785 81.9962 72.2905 82.0502 72.0025 82.0502Z" fill="#1A1A1A"/>
<path d="M77.4731 82.1578C75.9071 82.1578 74.6291 81.2398 74.6291 79.6738C74.6291 78.0358 75.9971 77.0098 78.8771 76.7218L80.5151 76.5598V76.2358C80.5151 74.7598 79.4711 74.0578 78.3911 74.0578C77.3651 74.0578 76.3211 74.7058 76.1771 76.0378L74.5391 76.0198C74.7011 73.8058 76.5731 72.7258 78.4271 72.7078C80.3171 72.6718 82.2071 73.8778 82.2071 76.3258V79.3858C82.2071 80.3578 82.3151 81.3298 82.4411 81.9598H80.7671C80.6771 81.5638 80.6051 81.0418 80.6051 80.1058C80.2091 81.4378 78.8051 82.1578 77.4731 82.1578ZM76.3211 79.5658C76.3211 80.5198 77.1131 80.9878 77.9951 80.9878C79.1831 80.9878 80.5331 80.1238 80.5331 78.3238V77.6218L79.0571 77.7838C77.2031 77.9998 76.3211 78.5938 76.3211 79.5658Z" fill="#1A1A1A"/>
<path d="M84.2852 81.9601V72.9781H85.9952L85.9412 75.1741C86.3192 73.6441 87.3452 72.7441 88.9292 72.7441C90.9092 72.7441 92.1692 74.1661 92.1692 76.4341V81.9601H90.4592V76.6861C90.4592 75.0481 89.7032 74.1301 88.3532 74.1301C86.8232 74.1301 85.9952 75.2641 85.9952 77.3161V81.9601H84.2852Z" fill="#1A1A1A"/>
<path d="M98.0682 82.1939C95.6562 82.1939 93.9102 80.2319 93.9102 77.4599C93.9102 74.7059 95.6562 72.7439 98.0682 72.7439C99.4722 72.7439 100.588 73.3919 101.254 74.5079V69.3599H102.964V80.0339V81.9599H101.254V80.4119C100.588 81.5459 99.4722 82.1939 98.0682 82.1939ZM95.6382 77.4599C95.6382 79.3859 96.8442 80.7899 98.5002 80.7899C100.174 80.7899 101.344 79.4399 101.344 77.4599C101.344 75.4979 100.174 74.1479 98.5002 74.1479C96.8442 74.1479 95.6382 75.5339 95.6382 77.4599Z" fill="#1A1A1A"/>
<path d="M49.4955 105.248C47.0655 105.248 45.3555 103.52 45.3555 101.108C45.3555 98.2099 47.7855 95.6899 50.6835 95.6899C53.1135 95.6899 54.8235 97.4179 54.8235 99.8119C54.8235 102.692 52.3935 105.248 49.4955 105.248ZM47.0475 101.126C47.0475 102.692 48.0555 103.772 49.5315 103.772C51.5655 103.772 53.1135 101.756 53.1135 99.7939C53.1135 98.2459 52.1235 97.1659 50.6475 97.1659C48.6315 97.1659 47.0475 99.1639 47.0475 101.126Z" fill="#1A1A1A"/>
<path d="M57.829 105.32L55.957 96.5358L57.631 96.1758L58.153 98.8218C58.135 96.7518 59.395 95.5818 61.195 95.5278L61.555 97.1838C59.557 97.2918 58.153 98.6238 58.693 101.18L59.503 104.96L57.829 105.32Z" fill="#1A1A1A"/>
<path d="M66.893 105.266C64.265 105.266 62.375 103.25 62.375 100.46C62.375 97.6878 64.265 95.6538 66.875 95.6538C69.971 95.6538 71.483 98.4438 71.159 100.946H64.103C64.157 102.692 65.309 103.934 66.911 103.934C68.153 103.934 69.197 103.214 69.539 102.134L70.997 102.368C70.601 104.024 68.981 105.266 66.893 105.266ZM64.121 99.6678H69.503C69.503 98.1378 68.441 96.9498 66.875 96.9498C65.381 96.9498 64.265 98.0658 64.121 99.6678Z" fill="#1A1A1A"/>
<path d="M77.6633 108.668C75.5573 108.668 73.6673 107.534 73.3253 105.824L74.9993 105.698C75.3053 106.688 76.4933 107.318 77.7173 107.318C79.1753 107.318 80.5073 106.418 80.5073 104.528V102.998C80.0213 104.132 78.7793 105.032 77.1953 105.032C74.6933 105.032 72.6953 103.052 72.6953 100.37C72.6953 97.742 74.6213 95.708 77.1953 95.708C78.7433 95.708 80.0573 96.554 80.5793 97.814V95.978H82.1993V104.258C82.1993 107.372 79.9313 108.668 77.6633 108.668ZM74.4233 100.37C74.4233 102.17 75.7373 103.592 77.5193 103.592C79.2653 103.592 80.5973 102.188 80.5973 100.37C80.5973 98.606 79.3013 97.148 77.5193 97.148C75.7733 97.148 74.4233 98.498 74.4233 100.37Z" fill="#1A1A1A"/>
<path d="M88.0814 105.248C85.6514 105.248 83.9414 103.52 83.9414 101.108C83.9414 98.2099 86.3715 95.6899 89.2695 95.6899C91.6995 95.6899 93.4094 97.4179 93.4094 99.8119C93.4094 102.692 90.9794 105.248 88.0814 105.248ZM85.6334 101.126C85.6334 102.692 86.6414 103.772 88.1175 103.772C90.1515 103.772 91.6995 101.756 91.6995 99.7939C91.6995 98.2459 90.7094 97.1659 89.2334 97.1659C87.2174 97.1659 85.6334 99.1639 85.6334 101.126Z" fill="#1A1A1A"/>
<path d="M95.1328 104.96V95.9781H96.8428L96.7888 98.1741C97.1668 96.6441 98.1928 95.7441 99.7768 95.7441C101.757 95.7441 103.017 97.1661 103.017 99.4341V104.96H101.307V99.6861C101.307 98.0481 100.551 97.1301 99.2008 97.1301C97.6708 97.1301 96.8428 98.2641 96.8428 100.316V104.96H95.1328Z" fill="#1A1A1A"/>
<path d="M60.9967 124.252C60.9967 125.89 61.7347 126.808 63.0487 126.808C64.5247 126.808 65.3527 125.674 65.3527 123.622V118.978H67.0627V124.72V127.96H65.3527L65.4067 126.214C64.9387 127.474 63.9307 128.194 62.4727 128.194C60.5467 128.194 59.3047 126.808 59.3047 124.576V118.978H60.9967V124.252Z" fill="#1A1A1A"/>
<path d="M73.1293 128.266C71.1853 128.266 69.7093 127.33 69.2953 125.746L70.8614 125.404C71.1314 126.43 72.0313 127.042 73.2013 127.042C74.4433 127.042 75.3073 126.394 75.3073 125.494C75.3073 124.702 74.6594 124.27 73.5074 124.234L71.9233 124.18C69.9433 124.144 68.8633 123.118 68.8633 121.642C68.8633 119.878 70.3754 118.654 72.4994 118.654C74.3354 118.654 75.7034 119.608 76.0814 121.174L74.5694 121.534C74.3354 120.49 73.4354 119.878 72.3734 119.878C71.2754 119.878 70.4654 120.544 70.4654 121.444C70.4654 122.056 70.8974 122.614 71.9954 122.686L73.5794 122.722C75.5774 122.74 76.9454 123.64 76.9454 125.278C76.9454 127.06 75.3613 128.266 73.1293 128.266Z" fill="#1A1A1A"/>
<path d="M82.4916 128.248C80.0616 128.248 78.3516 126.52 78.3516 124.108C78.3516 121.21 80.7816 118.69 83.6796 118.69C86.1096 118.69 87.8196 120.418 87.8196 122.812C87.8196 125.692 85.3896 128.248 82.4916 128.248ZM80.0436 124.126C80.0436 125.692 81.0516 126.772 82.5276 126.772C84.5616 126.772 86.1096 124.756 86.1096 122.794C86.1096 121.246 85.1196 120.166 83.6436 120.166C81.6276 120.166 80.0436 122.164 80.0436 124.126Z" fill="#1A1A1A"/>
<path d="M90.5178 117.952C90.5178 115.576 92.5158 114.892 94.2438 115.252V116.62C93.2538 116.314 92.2278 116.53 92.2278 117.952V118.978H94.3158V120.4H92.2278V127.96H90.5178V120.4H88.8438V118.978H90.5178V117.952Z" fill="#1A1A1A"/>
<path d="M98.2504 128.158C96.6844 128.158 95.4064 127.24 95.4064 125.674C95.4064 124.036 96.7744 123.01 99.6544 122.722L101.293 122.56V122.236C101.293 120.76 100.249 120.058 99.1684 120.058C98.1424 120.058 97.0984 120.706 96.9544 122.038L95.3164 122.02C95.4784 119.806 97.3504 118.726 99.2044 118.708C101.095 118.672 102.985 119.878 102.985 122.326V125.386C102.985 126.358 103.093 127.33 103.219 127.96H101.545C101.455 127.564 101.383 127.042 101.383 126.106C100.987 127.438 99.5824 128.158 98.2504 128.158ZM97.0984 125.566C97.0984 126.52 97.8904 126.988 98.7724 126.988C99.9604 126.988 101.311 126.124 101.311 124.324V123.622L99.8344 123.784C97.9804 124 97.0984 124.594 97.0984 125.566Z" fill="#1A1A1A"/>
<path d="M60.4297 150.96V141.978H62.1397L62.0857 144.174C62.4637 142.644 63.4897 141.744 65.0737 141.744C67.0537 141.744 68.3137 143.166 68.3137 145.434V150.96H66.6037V145.686C66.6037 144.048 65.8477 143.13 64.4977 143.13C62.9677 143.13 62.1397 144.264 62.1397 146.316V150.96H60.4297Z" fill="#1A1A1A"/>
<path d="M74.1244 151.248C71.6944 151.248 69.9844 149.52 69.9844 147.108C69.9844 144.21 72.4144 141.69 75.3124 141.69C77.7424 141.69 79.4524 143.418 79.4524 145.812C79.4524 148.692 77.0224 151.248 74.1244 151.248ZM71.6764 147.126C71.6764 148.692 72.6844 149.772 74.1604 149.772C76.1944 149.772 77.7424 147.756 77.7424 145.794C77.7424 144.246 76.7524 143.166 75.2764 143.166C73.2604 143.166 71.6764 145.164 71.6764 147.126Z" fill="#1A1A1A"/>
<path d="M82.454 151.32L80.582 142.536L82.256 142.176L82.778 144.822C82.76 142.752 84.02 141.582 85.82 141.528L86.18 143.184C84.182 143.292 82.778 144.624 83.318 147.18L84.128 150.96L82.454 151.32Z" fill="#1A1A1A"/>
<path d="M92.1204 150.996C89.8704 151.572 88.3584 150.402 88.3584 148.44C88.3584 147.9 88.4844 147.432 88.6104 146.856L89.4384 143.346L87.5664 142.932L87.8544 141.546L89.7624 141.978L90.3024 139.656L91.9404 139.998L91.4004 142.338L93.6864 142.842L93.3984 144.228L91.0764 143.706L90.2484 147.198C89.8524 148.89 90.3924 150.042 92.2644 149.574L92.1204 150.996Z" fill="#1A1A1A"/>
<path d="M95.1328 150.96V138.36H96.8428V143.976C97.2568 142.572 98.2648 141.744 99.7768 141.744C101.757 141.744 103.017 143.166 103.017 145.434V150.96H101.307V145.686C101.307 144.048 100.551 143.13 99.2008 143.13C97.6708 143.13 96.8428 144.264 96.8428 146.316V150.96H95.1328Z" fill="#1A1A1A"/>
<path d="M41.8598 174.158C40.2938 174.158 39.0158 173.24 39.0158 171.674C39.0158 170.036 40.3838 169.01 43.2638 168.722L44.9018 168.56V168.236C44.9018 166.76 43.8578 166.058 42.7778 166.058C41.7518 166.058 40.7078 166.706 40.5638 168.038L38.9258 168.02C39.0878 165.806 40.9598 164.726 42.8138 164.708C44.7038 164.672 46.5938 165.878 46.5938 168.326V171.386C46.5938 172.358 46.7018 173.33 46.8278 173.96H45.1538C45.0638 173.564 44.9918 173.042 44.9918 172.106C44.5958 173.438 43.1918 174.158 41.8598 174.158ZM40.7078 171.566C40.7078 172.52 41.4998 172.988 42.3818 172.988C43.5698 172.988 44.9198 172.124 44.9198 170.324V169.622L43.4438 169.784C41.5898 170 40.7078 170.594 40.7078 171.566Z" fill="#1A1A1A"/>
<path d="M48.6719 173.96V164.978H50.3819L50.3279 167.21C50.6879 165.662 51.7139 164.744 53.3159 164.744C54.8459 164.744 55.9439 165.626 56.3399 167.102C56.7179 165.608 57.7799 164.744 59.3639 164.744C61.2899 164.744 62.5139 166.13 62.5139 168.344V173.96H60.8039V168.686C60.8039 167.048 60.0839 166.13 58.7879 166.13C57.3299 166.13 56.5019 167.264 56.5019 169.316V173.96H54.8099V168.686C54.8099 167.048 54.0539 166.13 52.7219 166.13C51.2099 166.13 50.3819 167.264 50.3819 169.316V173.96H48.6719Z" fill="#1A1A1A"/>
<path d="M68.7758 174.266C66.1478 174.266 64.2578 172.25 64.2578 169.46C64.2578 166.688 66.1478 164.654 68.7578 164.654C71.8538 164.654 73.3658 167.444 73.0418 169.946H65.9858C66.0398 171.692 67.1918 172.934 68.7938 172.934C70.0358 172.934 71.0798 172.214 71.4218 171.134L72.8798 171.368C72.4838 173.024 70.8638 174.266 68.7758 174.266ZM66.0038 168.668H71.3858C71.3858 167.138 70.3238 165.95 68.7578 165.95C67.2638 165.95 66.1478 167.066 66.0038 168.668Z" fill="#1A1A1A"/>
<path d="M76.1454 174.32L74.2734 165.536L75.9474 165.176L76.4694 167.822C76.4514 165.752 77.7114 164.582 79.5114 164.528L79.8714 166.184C77.8734 166.292 76.4694 167.624 77.0094 170.18L77.8194 173.96L76.1454 174.32Z" fill="#1A1A1A"/>
<path d="M80.0391 173.888L82.1991 164.744L83.8911 165.05L81.7131 174.194L80.0391 173.888ZM80.9211 162.224C80.9211 161.54 81.4431 161 82.1451 161C82.8291 161 83.3511 161.54 83.3511 162.224C83.3511 162.926 82.8291 163.448 82.1451 163.448C81.4431 163.448 80.9211 162.926 80.9211 162.224Z" fill="#1A1A1A"/>
<path d="M89.6252 174.23C86.9612 174.23 85.0352 172.232 85.0352 169.46C85.0352 166.724 86.9792 164.708 89.6252 164.708C91.9112 164.708 93.7472 166.184 93.8912 168.308L92.2172 168.452C92.0732 167.138 90.9752 166.184 89.6072 166.184C87.9512 166.184 86.7452 167.57 86.7452 169.46C86.7452 171.584 88.1132 172.718 89.6072 172.718C90.9032 172.718 92.0732 171.854 92.2352 170.396L93.9092 170.522C93.7832 172.718 91.9472 174.23 89.6252 174.23Z" fill="#1A1A1A"/>
<path d="M98.2504 174.158C96.6844 174.158 95.4064 173.24 95.4064 171.674C95.4064 170.036 96.7744 169.01 99.6544 168.722L101.293 168.56V168.236C101.293 166.76 100.249 166.058 99.1684 166.058C98.1424 166.058 97.0984 166.706 96.9544 168.038L95.3164 168.02C95.4784 165.806 97.3504 164.726 99.2044 164.708C101.095 164.672 102.985 165.878 102.985 168.326V171.386C102.985 172.358 103.093 173.33 103.219 173.96H101.545C101.455 173.564 101.383 173.042 101.383 172.106C100.987 173.438 99.5824 174.158 98.2504 174.158ZM97.0984 171.566C97.0984 172.52 97.8904 172.988 98.7724 172.988C99.9604 172.988 101.311 172.124 101.311 170.324V169.622L99.8344 169.784C97.9804 170 97.0984 170.594 97.0984 171.566Z" fill="#1A1A1A"/>
<path d="M65.6821 197.266C63.0541 197.266 61.1641 195.25 61.1641 192.46C61.1641 189.688 63.0541 187.654 65.6641 187.654C68.7601 187.654 70.2721 190.444 69.9481 192.946H62.8921C62.9461 194.692 64.0981 195.934 65.7001 195.934C66.9421 195.934 67.9861 195.214 68.3281 194.134L69.7861 194.368C69.3901 196.024 67.7701 197.266 65.6821 197.266ZM62.9101 191.668H68.2921C68.2921 190.138 67.2301 188.95 65.6641 188.95C64.1701 188.95 63.0541 190.066 62.9101 191.668Z" fill="#1A1A1A"/>
<path d="M74.3793 197.158C72.8133 197.158 71.5353 196.24 71.5353 194.674C71.5353 193.036 72.9033 192.01 75.7833 191.722L77.4213 191.56V191.236C77.4213 189.76 76.3773 189.058 75.2973 189.058C74.2713 189.058 73.2273 189.706 73.0833 191.038L71.4453 191.02C71.6073 188.806 73.4793 187.726 75.3333 187.708C77.2233 187.672 79.1133 188.878 79.1133 191.326V194.386C79.1133 195.358 79.2213 196.33 79.3473 196.96H77.6733C77.5833 196.564 77.5113 196.042 77.5113 195.106C77.1153 196.438 75.7113 197.158 74.3793 197.158ZM73.2273 194.566C73.2273 195.52 74.0193 195.988 74.9013 195.988C76.0893 195.988 77.4393 195.124 77.4393 193.324V192.622L75.9633 192.784C74.1093 193 73.2273 193.594 73.2273 194.566Z" fill="#1A1A1A"/>
<path d="M82.454 197.32L80.582 188.536L82.256 188.176L82.778 190.822C82.76 188.752 84.02 187.582 85.82 187.528L86.18 189.184C84.182 189.292 82.778 190.624 83.318 193.18L84.128 196.96L82.454 197.32Z" fill="#1A1A1A"/>
<path d="M92.1204 196.996C89.8704 197.572 88.3584 196.402 88.3584 194.44C88.3584 193.9 88.4844 193.432 88.6104 192.856L89.4384 189.346L87.5664 188.932L87.8544 187.546L89.7624 187.978L90.3024 185.656L91.9404 185.998L91.4004 188.338L93.6864 188.842L93.3984 190.228L91.0764 189.706L90.2484 193.198C89.8524 194.89 90.3924 196.042 92.2644 195.574L92.1204 196.996Z" fill="#1A1A1A"/>
<path d="M95.1328 196.96V184.36H96.8428V189.976C97.2568 188.572 98.2648 187.744 99.7768 187.744C101.757 187.744 103.017 189.166 103.017 191.434V196.96H101.307V191.686C101.307 190.048 100.551 189.13 99.2008 189.13C97.6708 189.13 96.8428 190.264 96.8428 192.316V196.96H95.1328Z" fill="#1A1A1A"/>
<path d="M0.578125 219.96V210.978H2.28813L2.23413 213.21C2.59413 211.662 3.62013 210.744 5.22213 210.744C6.75213 210.744 7.85013 211.626 8.24613 213.102C8.62413 211.608 9.68612 210.744 11.2701 210.744C13.1961 210.744 14.4201 212.13 14.4201 214.344V219.96H12.7101V214.686C12.7101 213.048 11.9901 212.13 10.6941 212.13C9.23613 212.13 8.40812 213.264 8.40812 215.316V219.96H6.71613V214.686C6.71613 213.048 5.96013 212.13 4.62813 212.13C3.11613 212.13 2.28813 213.264 2.28813 215.316V219.96H0.578125Z" fill="#1A1A1A"/>
<path d="M18.8111 220.05C17.0831 220.05 16.0391 219.096 16.0391 217.566C16.0391 216.99 16.1651 216.36 16.7051 215.1L19.9631 207.18L21.4571 207.774L18.1991 215.694C17.8211 216.504 17.7311 216.918 17.7311 217.314C17.7311 218.142 18.2711 218.628 19.2251 218.628C19.4411 218.628 19.6031 218.592 19.7471 218.556L19.6211 219.942C19.3871 219.996 19.0991 220.05 18.8111 220.05Z" fill="#1A1A1A"/>
<path d="M22.2695 219.96V207.36H23.9615V214.938L28.5515 210.978H30.5855L26.7155 214.398L30.3155 219.96H28.4075L25.5275 215.46L23.9615 216.828V219.96H22.2695Z" fill="#1A1A1A"/>
<path d="M32.0235 222.084C33.1035 222.372 34.2735 222.156 34.9935 220.608L35.3715 219.708L31.5195 210.978H33.3195L36.3075 217.818L39.0615 210.978H40.7895L36.7575 220.608C35.7495 223.056 34.1115 224.046 32.0235 223.524V222.084Z" fill="#1A1A1A"/>
<path d="M45.1249 219.96L42.0469 210.978H43.8829L46.1509 218.052L48.3109 210.978H50.2009L52.3789 218.052L54.6469 210.978H56.4469L53.3689 219.96H51.4609L49.2649 212.832L47.0509 219.96H45.1249Z" fill="#1A1A1A"/>
<path d="M58.1602 222.084C59.2402 222.372 60.4102 222.156 61.1302 220.608L61.5083 219.708L57.6562 210.978H59.4562L62.4442 217.818L65.1982 210.978H66.9263L62.8942 220.608C61.8862 223.056 60.2482 224.046 58.1602 223.524V222.084Z" fill="#1A1A1A"/>
<path d="M72.4953 223.668C70.3893 223.668 68.4993 222.534 68.1573 220.824L69.8313 220.698C70.1373 221.688 71.3253 222.318 72.5493 222.318C74.0073 222.318 75.3393 221.418 75.3393 219.528V217.998C74.8533 219.132 73.6113 220.032 72.0273 220.032C69.5253 220.032 67.5273 218.052 67.5273 215.37C67.5273 212.742 69.4533 210.708 72.0273 210.708C73.5753 210.708 74.8893 211.554 75.4113 212.814V210.978H77.0313V219.258C77.0313 222.372 74.7633 223.668 72.4953 223.668ZM69.2553 215.37C69.2553 217.17 70.5693 218.592 72.3513 218.592C74.0973 218.592 75.4293 217.188 75.4293 215.37C75.4293 213.606 74.1333 212.148 72.3513 212.148C70.6053 212.148 69.2553 213.498 69.2553 215.37Z" fill="#1A1A1A"/>
<path d="M81.5454 220.05C79.8174 220.05 78.7734 219.096 78.7734 217.566C78.7734 216.99 78.8994 216.36 79.4394 215.1L82.6974 207.18L84.1914 207.774L80.9334 215.694C80.5554 216.504 80.4654 216.918 80.4654 217.314C80.4654 218.142 81.0054 218.628 81.9595 218.628C82.1755 218.628 82.3374 218.592 82.4814 218.556L82.3554 219.942C82.1214 219.996 81.8334 220.05 81.5454 220.05Z" fill="#1A1A1A"/>
<path d="M91.0868 219.96L88.7288 216.828L86.4248 219.96H84.5888L87.8288 215.64L84.3008 210.978H86.2088L88.8728 214.488L91.4828 210.978H93.3008L89.7548 215.658L93.0128 219.96H91.0868Z" fill="#1A1A1A"/>
<path d="M94.7931 222.084C95.8731 222.372 97.0431 222.156 97.7631 220.608L98.1411 219.708L94.2891 210.978H96.0891L99.0771 217.818L101.831 210.978H103.559L99.5271 220.608C98.5191 223.056 96.8811 224.046 94.7931 223.524V222.084Z" fill="#1A1A1A"/>
</g>
<defs>
<clipPath id="clip0_149_3212">
<rect width="104" height="224" fill="white"/>
</clipPath>
</defs>
</svg>
