<svg width="430" height="133" viewBox="0 0 430 133" fill="none" xmlns="http://www.w3.org/2000/svg">
<g clip-path="url(#clip0_149_3207)">
<path d="M42.7494 130.016C21.6282 135.92 7.43469 123.928 7.43469 103.819C7.43469 98.2847 8.61748 93.488 9.80027 87.5845L17.5729 51.6097L0 47.3665L2.70352 33.1611L20.6144 37.5887L25.6835 13.79L41.0597 17.2953L35.9906 41.2785L57.4498 46.4441L54.7463 60.6495L32.9492 55.2994L25.1765 91.0897C21.4592 108.431 26.5283 120.238 44.1012 115.442L42.7494 130.016Z" fill="#1A1A1A"/>
<path d="M101.863 132.599C79.0522 132.599 63 114.888 63 90.167C63 60.4647 85.811 34.6367 113.015 34.6367C135.826 34.6367 151.878 52.3473 151.878 76.884C151.878 106.402 129.067 132.599 101.863 132.599ZM78.8832 90.3515C78.8832 106.402 88.3455 117.471 102.201 117.471C121.295 117.471 135.826 96.8085 135.826 76.6995C135.826 60.8337 126.533 49.7645 112.677 49.7645C93.7526 49.7645 78.8832 70.2425 78.8832 90.3515Z" fill="#1A1A1A"/>
<path d="M168.039 129.647V37.5887H184.092L183.585 60.465C186.964 44.5992 196.595 35.1904 211.634 35.1904C225.996 35.1904 236.303 44.2302 240.021 59.3581C243.569 44.0458 253.538 35.1904 268.408 35.1904C286.487 35.1904 297.977 49.3958 297.977 72.0876V129.647H281.925V75.5929C281.925 58.8046 275.166 49.3959 263.001 49.3959C249.314 49.3959 241.541 61.0185 241.541 82.0499V129.647H225.658V75.5929C225.658 58.8046 218.562 49.3959 206.058 49.3959C191.864 49.3959 184.092 61.0185 184.092 82.0499V129.647H168.039Z" fill="#1A1A1A"/>
<path d="M351.199 129.647V0.506836H367.083V78.1755L410.17 37.5885H429.264L392.935 72.6409L426.729 129.647H408.818L381.783 83.5256L367.083 97.5465V129.647H351.199Z" fill="#1A1A1A"/>
</g>
<defs>
<clipPath id="clip0_149_3207">
<rect width="430" height="133" fill="white"/>
</clipPath>
</defs>
</svg>
