<svg width="104" height="224" viewBox="0 0 104 224" fill="none" xmlns="http://www.w3.org/2000/svg">
<path d="M51.0645 13.194C48.6525 13.194 46.9065 11.232 46.9065 8.46C46.9065 5.706 48.6525 3.744 51.0645 3.744C52.4685 3.744 53.5845 4.392 54.2505 5.508V0.36H55.9605V11.034V12.96H54.2505V11.412C53.5845 12.546 52.4685 13.194 51.0645 13.194ZM48.6345 8.46C48.6345 10.386 49.8405 11.79 51.4965 11.79C53.1705 11.79 54.3405 10.44 54.3405 8.46C54.3405 6.498 53.1705 5.148 51.4965 5.148C49.8405 5.148 48.6345 6.534 48.6345 8.46Z" fill="white"/>
<path d="M57.5755 12.888L59.7355 3.744L61.4275 4.05L59.2495 13.194L57.5755 12.888ZM58.4575 1.224C58.4575 0.54 58.9795 0 59.6815 0C60.3655 0 60.8875 0.54 60.8875 1.224C60.8875 1.926 60.3655 2.448 59.6815 2.448C58.9795 2.448 58.4575 1.926 58.4575 1.224Z" fill="white"/>
<path d="M67.519 16.668C65.413 16.668 63.523 15.534 63.181 13.824L64.855 13.698C65.161 14.688 66.349 15.318 67.573 15.318C69.031 15.318 70.363 14.418 70.363 12.528V10.998C69.877 12.132 68.635 13.032 67.051 13.032C64.549 13.032 62.551 11.052 62.551 8.37C62.551 5.742 64.477 3.708 67.051 3.708C68.599 3.708 69.913 4.554 70.435 5.814V3.978H72.055V12.258C72.055 15.372 69.787 16.668 67.519 16.668ZM64.279 8.37C64.279 10.17 65.593 11.592 67.375 11.592C69.121 11.592 70.453 10.188 70.453 8.37C70.453 6.606 69.157 5.148 67.375 5.148C65.629 5.148 64.279 6.498 64.279 8.37Z" fill="white"/>
<path d="M73.7123 12.888L75.8723 3.744L77.5643 4.05L75.3863 13.194L73.7123 12.888ZM74.5943 1.224C74.5943 0.54 75.1163 0 75.8183 0C76.5023 0 77.0243 0.54 77.0243 1.224C77.0243 1.926 76.5023 2.448 75.8183 2.448C75.1163 2.448 74.5943 1.926 74.5943 1.224Z" fill="white"/>
<path d="M83.4012 12.996C81.1512 13.572 79.6392 12.402 79.6392 10.44C79.6392 9.9 79.7652 9.432 79.8912 8.856L80.7192 5.346L78.8472 4.932L79.1352 3.546L81.0432 3.978L81.5832 1.656L83.2212 1.998L82.6812 4.338L84.9672 4.842L84.6792 6.228L82.3572 5.706L81.5292 9.198C81.1332 10.89 81.6732 12.042 83.5452 11.574L83.4012 12.996Z" fill="white"/>
<path d="M88.8631 13.158C87.2971 13.158 86.0191 12.24 86.0191 10.674C86.0191 9.036 87.3871 8.01 90.2671 7.722L91.9051 7.56V7.236C91.9051 5.76 90.8611 5.058 89.7811 5.058C88.7551 5.058 87.7111 5.706 87.5671 7.038L85.9291 7.02C86.0911 4.806 87.9631 3.726 89.8171 3.708C91.7071 3.672 93.5971 4.878 93.5971 7.326V10.386C93.5971 11.358 93.7051 12.33 93.8311 12.96H92.1571C92.0671 12.564 91.9951 12.042 91.9951 11.106C91.5991 12.438 90.1951 13.158 88.8631 13.158ZM87.7111 10.566C87.7111 11.52 88.5031 11.988 89.3851 11.988C90.5731 11.988 91.9231 11.124 91.9231 9.324V8.622L90.4471 8.784C88.5931 9 87.7111 9.594 87.7111 10.566Z" fill="white"/>
<path d="M98.0522 13.05C96.3242 13.05 95.2802 12.096 95.2802 10.566C95.2802 9.99 95.4062 9.36 95.9462 8.1L99.2042 0.18L100.698 0.774L97.4402 8.694C97.0622 9.504 96.9722 9.918 96.9722 10.314C96.9722 11.142 97.5122 11.628 98.4662 11.628C98.6822 11.628 98.8442 11.592 98.9882 11.556L98.8622 12.942C98.6282 12.996 98.3402 13.05 98.0522 13.05Z" fill="white"/>
<path d="M39.7246 39.38V26.978H41.4346V28.49C42.1006 27.374 43.2166 26.744 44.6026 26.744C47.0146 26.744 48.7606 28.706 48.7606 31.478C48.7606 34.232 47.0146 36.194 44.6026 36.194C43.2166 36.194 42.1006 35.564 41.4346 34.448V39.38H39.7246ZM41.3266 31.478C41.3266 33.44 42.4966 34.79 44.1706 34.79C45.8266 34.79 47.0326 33.404 47.0326 31.478C47.0326 29.552 45.8266 28.148 44.1706 28.148C42.4966 28.148 41.3266 29.498 41.3266 31.478Z" fill="white"/>
<path d="M51.8684 36.32L49.9964 27.536L51.6704 27.176L52.1924 29.822C52.1744 27.752 53.4344 26.582 55.2344 26.528L55.5944 28.184C53.5964 28.292 52.1924 29.624 52.7324 32.18L53.5424 35.96L51.8684 36.32Z" fill="white"/>
<path d="M60.2725 36.248C57.8425 36.248 56.1325 34.52 56.1325 32.108C56.1325 29.21 58.5625 26.69 61.4605 26.69C63.8905 26.69 65.6005 28.418 65.6005 30.812C65.6005 33.692 63.1705 36.248 60.2725 36.248ZM57.8245 32.126C57.8245 33.692 58.8325 34.772 60.3085 34.772C62.3425 34.772 63.8905 32.756 63.8905 30.794C63.8905 29.246 62.9005 28.166 61.4245 28.166C59.4085 28.166 57.8245 30.164 57.8245 32.126Z" fill="white"/>
<path d="M71.209 36.194C68.797 36.194 67.051 34.232 67.051 31.46C67.051 28.706 68.797 26.744 71.209 26.744C72.613 26.744 73.729 27.392 74.395 28.508V23.36H76.105V34.034V35.96H74.395V34.412C73.729 35.546 72.613 36.194 71.209 36.194ZM68.779 31.46C68.779 33.386 69.985 34.79 71.641 34.79C73.315 34.79 74.485 33.44 74.485 31.46C74.485 29.498 73.315 28.148 71.641 28.148C69.985 28.148 68.779 29.534 68.779 31.46Z" fill="white"/>
<path d="M79.8231 32.252C79.8231 33.89 80.5611 34.808 81.8751 34.808C83.3511 34.808 84.1791 33.674 84.1791 31.622V26.978H85.8891V32.72V35.96H84.1791L84.2331 34.214C83.7651 35.474 82.7571 36.194 81.2991 36.194C79.3731 36.194 78.1311 34.808 78.1311 32.576V26.978H79.8231V32.252Z" fill="white"/>
<path d="M92.2777 36.23C89.6137 36.23 87.6877 34.232 87.6877 31.46C87.6877 28.724 89.6317 26.708 92.2777 26.708C94.5637 26.708 96.3997 28.184 96.5437 30.308L94.8697 30.452C94.7257 29.138 93.6277 28.184 92.2597 28.184C90.6037 28.184 89.3977 29.57 89.3977 31.46C89.3977 33.584 90.7657 34.718 92.2597 34.718C93.5557 34.718 94.7257 33.854 94.8877 32.396L96.5617 32.522C96.4357 34.718 94.5997 36.23 92.2777 36.23Z" fill="white"/>
<path d="M102.315 35.996C100.065 36.572 98.5533 35.402 98.5533 33.44C98.5533 32.9 98.6793 32.432 98.8053 31.856L99.6333 28.346L97.7613 27.932L98.0493 26.546L99.9573 26.978L100.497 24.656L102.135 24.998L101.595 27.338L103.881 27.842L103.593 29.228L101.271 28.706L100.443 32.198C100.047 33.89 100.587 35.042 102.459 34.574L102.315 35.996Z" fill="white"/>
<path d="M34.9805 59.194C32.5685 59.194 30.8225 57.232 30.8225 54.46C30.8225 51.706 32.5685 49.744 34.9805 49.744C36.3845 49.744 37.5005 50.392 38.1665 51.508V46.36H39.8765V57.034V58.96H38.1665V57.412C37.5005 58.546 36.3845 59.194 34.9805 59.194ZM32.5505 54.46C32.5505 56.386 33.7565 57.79 35.4125 57.79C37.0865 57.79 38.2565 56.44 38.2565 54.46C38.2565 52.498 37.0865 51.148 35.4125 51.148C33.7565 51.148 32.5505 52.534 32.5505 54.46Z" fill="white"/>
<path d="M46.2565 59.266C43.6285 59.266 41.7385 57.25 41.7385 54.46C41.7385 51.688 43.6285 49.654 46.2385 49.654C49.3345 49.654 50.8465 52.444 50.5225 54.946H43.4665C43.5205 56.692 44.6725 57.934 46.2745 57.934C47.5165 57.934 48.5605 57.214 48.9025 56.134L50.3605 56.368C49.9645 58.024 48.3445 59.266 46.2565 59.266ZM43.4845 53.668H48.8665C48.8665 52.138 47.8045 50.95 46.2385 50.95C44.7445 50.95 43.6285 52.066 43.4845 53.668Z" fill="white"/>
<path d="M56.3404 59.266C54.3964 59.266 52.9204 58.33 52.5064 56.746L54.0724 56.404C54.3424 57.43 55.2424 58.042 56.4124 58.042C57.6544 58.042 58.5184 57.394 58.5184 56.494C58.5184 55.702 57.8704 55.27 56.7184 55.234L55.1344 55.18C53.1544 55.144 52.0744 54.118 52.0744 52.642C52.0744 50.878 53.5864 49.654 55.7104 49.654C57.5464 49.654 58.9144 50.608 59.2924 52.174L57.7804 52.534C57.5464 51.49 56.6464 50.878 55.5844 50.878C54.4864 50.878 53.6764 51.544 53.6764 52.444C53.6764 53.056 54.1084 53.614 55.2064 53.686L56.7904 53.722C58.7884 53.74 60.1564 54.64 60.1564 56.278C60.1564 58.06 58.5724 59.266 56.3404 59.266Z" fill="white"/>
<path d="M61.3724 58.888L63.5324 49.744L65.2244 50.05L63.0464 59.194L61.3724 58.888ZM62.2544 47.224C62.2544 46.54 62.7764 46 63.4784 46C64.1624 46 64.6844 46.54 64.6844 47.224C64.6844 47.926 64.1624 48.448 63.4784 48.448C62.7764 48.448 62.2544 47.926 62.2544 47.224Z" fill="white"/>
<path d="M71.3159 62.668C69.2099 62.668 67.3199 61.534 66.9779 59.824L68.6519 59.698C68.9579 60.688 70.1459 61.318 71.3699 61.318C72.8279 61.318 74.1599 60.418 74.1599 58.528V56.998C73.6739 58.132 72.4319 59.032 70.8479 59.032C68.3459 59.032 66.3479 57.052 66.3479 54.37C66.3479 51.742 68.2739 49.708 70.8479 49.708C72.3959 49.708 73.7099 50.554 74.2319 51.814V49.978H75.8519V58.258C75.8519 61.372 73.5839 62.668 71.3159 62.668ZM68.0759 54.37C68.0759 56.17 69.3899 57.592 71.1719 57.592C72.9179 57.592 74.2499 56.188 74.2499 54.37C74.2499 52.606 72.9539 51.148 71.1719 51.148C69.4259 51.148 68.0759 52.498 68.0759 54.37Z" fill="white"/>
<path d="M77.9746 58.96V49.978H79.6846L79.6306 52.174C80.0086 50.644 81.0346 49.744 82.6186 49.744C84.5986 49.744 85.8586 51.166 85.8586 53.434V58.96H84.1486V53.686C84.1486 52.048 83.3926 51.13 82.0426 51.13C80.5126 51.13 79.6846 52.264 79.6846 54.316V58.96H77.9746Z" fill="white"/>
<path d="M92.1178 59.266C89.4898 59.266 87.5998 57.25 87.5998 54.46C87.5998 51.688 89.4898 49.654 92.0998 49.654C95.1958 49.654 96.7078 52.444 96.3838 54.946H89.3278C89.3818 56.692 90.5338 57.934 92.1358 57.934C93.3778 57.934 94.4218 57.214 94.7638 56.134L96.2218 56.368C95.8258 58.024 94.2058 59.266 92.1178 59.266ZM89.3458 53.668H94.7278C94.7278 52.138 93.6658 50.95 92.0998 50.95C90.6058 50.95 89.4898 52.066 89.3458 53.668Z" fill="white"/>
<path d="M99.4876 59.32L97.6156 50.536L99.2896 50.176L99.8116 52.822C99.7936 50.752 101.054 49.582 102.854 49.528L103.214 51.184C101.216 51.292 99.8116 52.624 100.352 55.18L101.162 58.96L99.4876 59.32Z" fill="white"/>
<path d="M34.75 85.38V72.978H36.46V74.49C37.126 73.374 38.242 72.744 39.628 72.744C42.04 72.744 43.786 74.706 43.786 77.478C43.786 80.232 42.04 82.194 39.628 82.194C38.242 82.194 37.126 81.564 36.46 80.448V85.38H34.75ZM36.352 77.478C36.352 79.44 37.522 80.79 39.196 80.79C40.852 80.79 42.058 79.404 42.058 77.478C42.058 75.552 40.852 74.148 39.196 74.148C37.522 74.148 36.352 75.498 36.352 77.478Z" fill="white"/>
<path d="M49.3916 82.248C46.9616 82.248 45.2516 80.52 45.2516 78.108C45.2516 75.21 47.6816 72.69 50.5796 72.69C53.0096 72.69 54.7196 74.418 54.7196 76.812C54.7196 79.692 52.2896 82.248 49.3916 82.248ZM46.9436 78.126C46.9436 79.692 47.9516 80.772 49.4276 80.772C51.4616 80.772 53.0096 78.756 53.0096 76.794C53.0096 75.246 52.0196 74.166 50.5436 74.166C48.5276 74.166 46.9436 76.164 46.9436 78.126Z" fill="white"/>
<path d="M57.7219 82.32L55.8499 73.536L57.5239 73.176L58.0459 75.822C58.0279 73.752 59.2879 72.582 61.0879 72.528L61.4479 74.184C59.4499 74.292 58.0459 75.624 58.5859 78.18L59.3959 81.96L57.7219 82.32Z" fill="white"/>
<path d="M67.3875 81.996C65.1375 82.572 63.6255 81.402 63.6255 79.44C63.6255 78.9 63.7515 78.432 63.8775 77.856L64.7055 74.346L62.8335 73.932L63.1215 72.546L65.0295 72.978L65.5695 70.656L67.2075 70.998L66.6675 73.338L68.9535 73.842L68.6655 75.228L66.3435 74.706L65.5155 78.198C65.1195 79.89 65.6595 81.042 67.5315 80.574L67.3875 81.996Z" fill="white"/>
<path d="M72.0014 82.05C70.2734 82.05 69.2294 81.096 69.2294 79.566C69.2294 78.99 69.3554 78.36 69.8954 77.1L73.1534 69.18L74.6474 69.774L71.3894 77.694C71.0114 78.504 70.9214 78.918 70.9214 79.314C70.9214 80.142 71.4614 80.628 72.4154 80.628C72.6314 80.628 72.7934 80.592 72.9374 80.556L72.8114 81.942C72.5774 81.996 72.2894 82.05 72.0014 82.05Z" fill="white"/>
<path d="M77.4724 82.158C75.9064 82.158 74.6284 81.24 74.6284 79.674C74.6284 78.036 75.9964 77.01 78.8764 76.722L80.5144 76.56V76.236C80.5144 74.76 79.4704 74.058 78.3904 74.058C77.3644 74.058 76.3204 74.706 76.1764 76.038L74.5384 76.02C74.7004 73.806 76.5724 72.726 78.4264 72.708C80.3164 72.672 82.2064 73.878 82.2064 76.326V79.386C82.2064 80.358 82.3144 81.33 82.4404 81.96H80.7664C80.6764 81.564 80.6044 81.042 80.6044 80.106C80.2084 81.438 78.8044 82.158 77.4724 82.158ZM76.3204 79.566C76.3204 80.52 77.1124 80.988 77.9944 80.988C79.1824 80.988 80.5324 80.124 80.5324 78.324V77.622L79.0564 77.784C77.2024 78 76.3204 78.594 76.3204 79.566Z" fill="white"/>
<path d="M84.2852 81.96V72.978H85.9952L85.9412 75.174C86.3192 73.644 87.3452 72.744 88.9292 72.744C90.9092 72.744 92.1692 74.166 92.1692 76.434V81.96H90.4592V76.686C90.4592 75.048 89.7032 74.13 88.3532 74.13C86.8232 74.13 85.9952 75.264 85.9952 77.316V81.96H84.2852Z" fill="white"/>
<path d="M98.0684 82.194C95.6564 82.194 93.9104 80.232 93.9104 77.46C93.9104 74.706 95.6564 72.744 98.0684 72.744C99.4724 72.744 100.588 73.392 101.254 74.508V69.36H102.964V80.034V81.96H101.254V80.412C100.588 81.546 99.4724 82.194 98.0684 82.194ZM95.6384 77.46C95.6384 79.386 96.8444 80.79 98.5004 80.79C100.174 80.79 101.344 79.44 101.344 77.46C101.344 75.498 100.174 74.148 98.5004 74.148C96.8444 74.148 95.6384 75.534 95.6384 77.46Z" fill="white"/>
<path d="M49.4971 105.248C47.0671 105.248 45.3571 103.52 45.3571 101.108C45.3571 98.21 47.7871 95.69 50.6851 95.69C53.1151 95.69 54.8251 97.418 54.8251 99.812C54.8251 102.692 52.3951 105.248 49.4971 105.248ZM47.0491 101.126C47.0491 102.692 48.0571 103.772 49.5331 103.772C51.5671 103.772 53.1151 101.756 53.1151 99.794C53.1151 98.246 52.1251 97.166 50.6491 97.166C48.6331 97.166 47.0491 99.164 47.0491 101.126Z" fill="white"/>
<path d="M57.8274 105.32L55.9554 96.536L57.6294 96.176L58.1514 98.822C58.1334 96.752 59.3934 95.582 61.1934 95.528L61.5534 97.184C59.5554 97.292 58.1514 98.624 58.6914 101.18L59.5014 104.96L57.8274 105.32Z" fill="white"/>
<path d="M66.8932 105.266C64.2652 105.266 62.3752 103.25 62.3752 100.46C62.3752 97.688 64.2652 95.654 66.8752 95.654C69.9712 95.654 71.4832 98.444 71.1592 100.946H64.1032C64.1572 102.692 65.3092 103.934 66.9112 103.934C68.1532 103.934 69.1972 103.214 69.5392 102.134L70.9972 102.368C70.6012 104.024 68.9812 105.266 66.8932 105.266ZM64.1212 99.668H69.5032C69.5032 98.138 68.4412 96.95 66.8752 96.95C65.3812 96.95 64.2652 98.066 64.1212 99.668Z" fill="white"/>
<path d="M77.6616 108.668C75.5556 108.668 73.6656 107.534 73.3236 105.824L74.9976 105.698C75.3036 106.688 76.4916 107.318 77.7156 107.318C79.1736 107.318 80.5056 106.418 80.5056 104.528V102.998C80.0196 104.132 78.7776 105.032 77.1936 105.032C74.6916 105.032 72.6936 103.052 72.6936 100.37C72.6936 97.742 74.6196 95.708 77.1936 95.708C78.7416 95.708 80.0556 96.554 80.5776 97.814V95.978H82.1976V104.258C82.1976 107.372 79.9296 108.668 77.6616 108.668ZM74.4216 100.37C74.4216 102.17 75.7356 103.592 77.5176 103.592C79.2636 103.592 80.5956 102.188 80.5956 100.37C80.5956 98.606 79.2996 97.148 77.5176 97.148C75.7716 97.148 74.4216 98.498 74.4216 100.37Z" fill="white"/>
<path d="M88.081 105.248C85.651 105.248 83.941 103.52 83.941 101.108C83.941 98.21 86.3711 95.69 89.2691 95.69C91.6991 95.69 93.409 97.418 93.409 99.812C93.409 102.692 90.979 105.248 88.081 105.248ZM85.633 101.126C85.633 102.692 86.641 103.772 88.1171 103.772C90.1511 103.772 91.6991 101.756 91.6991 99.794C91.6991 98.246 90.709 97.166 89.233 97.166C87.217 97.166 85.633 99.164 85.633 101.126Z" fill="white"/>
<path d="M95.1309 104.96V95.978H96.8409L96.7869 98.174C97.1649 96.644 98.1909 95.744 99.7749 95.744C101.755 95.744 103.015 97.166 103.015 99.434V104.96H101.305V99.686C101.305 98.048 100.549 97.13 99.1989 97.13C97.6689 97.13 96.8409 98.264 96.8409 100.316V104.96H95.1309Z" fill="white"/>
<path d="M60.997 124.252C60.997 125.89 61.735 126.808 63.049 126.808C64.525 126.808 65.353 125.674 65.353 123.622V118.978H67.063V124.72V127.96H65.353L65.407 126.214C64.939 127.474 63.931 128.194 62.473 128.194C60.547 128.194 59.305 126.808 59.305 124.576V118.978H60.997V124.252Z" fill="white"/>
<path d="M73.1275 128.266C71.1835 128.266 69.7075 127.33 69.2935 125.746L70.8596 125.404C71.1296 126.43 72.0295 127.042 73.1995 127.042C74.4415 127.042 75.3055 126.394 75.3055 125.494C75.3055 124.702 74.6576 124.27 73.5056 124.234L71.9215 124.18C69.9415 124.144 68.8615 123.118 68.8615 121.642C68.8615 119.878 70.3736 118.654 72.4976 118.654C74.3336 118.654 75.7016 119.608 76.0796 121.174L74.5676 121.534C74.3336 120.49 73.4336 119.878 72.3716 119.878C71.2736 119.878 70.4636 120.544 70.4636 121.444C70.4636 122.056 70.8956 122.614 71.9936 122.686L73.5776 122.722C75.5756 122.74 76.9436 123.64 76.9436 125.278C76.9436 127.06 75.3595 128.266 73.1275 128.266Z" fill="white"/>
<path d="M82.4912 128.248C80.0612 128.248 78.3512 126.52 78.3512 124.108C78.3512 121.21 80.7812 118.69 83.6792 118.69C86.1092 118.69 87.8192 120.418 87.8192 122.812C87.8192 125.692 85.3892 128.248 82.4912 128.248ZM80.0432 124.126C80.0432 125.692 81.0512 126.772 82.5272 126.772C84.5612 126.772 86.1092 124.756 86.1092 122.794C86.1092 121.246 85.1192 120.166 83.6432 120.166C81.6272 120.166 80.0432 122.164 80.0432 124.126Z" fill="white"/>
<path d="M90.5164 117.952C90.5164 115.576 92.5144 114.892 94.2424 115.252V116.62C93.2524 116.314 92.2264 116.53 92.2264 117.952V118.978H94.3144V120.4H92.2264V127.96H90.5164V120.4H88.8424V118.978H90.5164V117.952Z" fill="white"/>
<path d="M98.2498 128.158C96.6838 128.158 95.4058 127.24 95.4058 125.674C95.4058 124.036 96.7738 123.01 99.6538 122.722L101.292 122.56V122.236C101.292 120.76 100.248 120.058 99.1678 120.058C98.1418 120.058 97.0978 120.706 96.9538 122.038L95.3158 122.02C95.4778 119.806 97.3498 118.726 99.2038 118.708C101.094 118.672 102.984 119.878 102.984 122.326V125.386C102.984 126.358 103.092 127.33 103.218 127.96H101.544C101.454 127.564 101.382 127.042 101.382 126.106C100.986 127.438 99.5818 128.158 98.2498 128.158ZM97.0978 125.566C97.0978 126.52 97.8898 126.988 98.7718 126.988C99.9598 126.988 101.31 126.124 101.31 124.324V123.622L99.8338 123.784C97.9798 124 97.0978 124.594 97.0978 125.566Z" fill="white"/>
<path d="M60.4316 150.96V141.978H62.1416L62.0876 144.174C62.4656 142.644 63.4916 141.744 65.0756 141.744C67.0556 141.744 68.3156 143.166 68.3156 145.434V150.96H66.6056V145.686C66.6056 144.048 65.8496 143.13 64.4996 143.13C62.9696 143.13 62.1416 144.264 62.1416 146.316V150.96H60.4316Z" fill="white"/>
<path d="M74.124 151.248C71.694 151.248 69.984 149.52 69.984 147.108C69.984 144.21 72.414 141.69 75.312 141.69C77.742 141.69 79.452 143.418 79.452 145.812C79.452 148.692 77.022 151.248 74.124 151.248ZM71.676 147.126C71.676 148.692 72.684 149.772 74.16 149.772C76.194 149.772 77.742 147.756 77.742 145.794C77.742 144.246 76.752 143.166 75.276 143.166C73.26 143.166 71.676 145.164 71.676 147.126Z" fill="white"/>
<path d="M82.4544 151.32L80.5824 142.536L82.2564 142.176L82.7784 144.822C82.7604 142.752 84.0204 141.582 85.8204 141.528L86.1804 143.184C84.1824 143.292 82.7784 144.624 83.3184 147.18L84.1284 150.96L82.4544 151.32Z" fill="white"/>
<path d="M92.1199 150.996C89.8699 151.572 88.3579 150.402 88.3579 148.44C88.3579 147.9 88.4839 147.432 88.6099 146.856L89.4379 143.346L87.5659 142.932L87.8539 141.546L89.7619 141.978L90.3019 139.656L91.9399 139.998L91.3999 142.338L93.6859 142.842L93.3979 144.228L91.0759 143.706L90.2479 147.198C89.8519 148.89 90.3919 150.042 92.2639 149.574L92.1199 150.996Z" fill="white"/>
<path d="M95.1309 150.96V138.36H96.8409V143.976C97.2549 142.572 98.2629 141.744 99.7749 141.744C101.755 141.744 103.015 143.166 103.015 145.434V150.96H101.305V145.686C101.305 144.048 100.549 143.13 99.1989 143.13C97.6689 143.13 96.8409 144.264 96.8409 146.316V150.96H95.1309Z" fill="white"/>
<path d="M41.8592 174.158C40.2932 174.158 39.0152 173.24 39.0152 171.674C39.0152 170.036 40.3832 169.01 43.2632 168.722L44.9012 168.56V168.236C44.9012 166.76 43.8572 166.058 42.7772 166.058C41.7512 166.058 40.7072 166.706 40.5632 168.038L38.9252 168.02C39.0872 165.806 40.9592 164.726 42.8132 164.708C44.7032 164.672 46.5932 165.878 46.5932 168.326V171.386C46.5932 172.358 46.7012 173.33 46.8272 173.96H45.1532C45.0632 173.564 44.9912 173.042 44.9912 172.106C44.5952 173.438 43.1912 174.158 41.8592 174.158ZM40.7072 171.566C40.7072 172.52 41.4992 172.988 42.3812 172.988C43.5692 172.988 44.9192 172.124 44.9192 170.324V169.622L43.4432 169.784C41.5892 170 40.7072 170.594 40.7072 171.566Z" fill="white"/>
<path d="M48.6719 173.96V164.978H50.3819L50.3279 167.21C50.6879 165.662 51.7139 164.744 53.3159 164.744C54.8459 164.744 55.9439 165.626 56.3399 167.102C56.7179 165.608 57.7799 164.744 59.3639 164.744C61.2899 164.744 62.5139 166.13 62.5139 168.344V173.96H60.8039V168.686C60.8039 167.048 60.0839 166.13 58.7879 166.13C57.3299 166.13 56.5019 167.264 56.5019 169.316V173.96H54.8099V168.686C54.8099 167.048 54.0539 166.13 52.7219 166.13C51.2099 166.13 50.3819 167.264 50.3819 169.316V173.96H48.6719Z" fill="white"/>
<path d="M68.7741 174.266C66.1461 174.266 64.2561 172.25 64.2561 169.46C64.2561 166.688 66.1461 164.654 68.7561 164.654C71.8521 164.654 73.3641 167.444 73.0401 169.946H65.9841C66.0381 171.692 67.1901 172.934 68.7921 172.934C70.0341 172.934 71.0781 172.214 71.4201 171.134L72.8781 171.368C72.4821 173.024 70.8621 174.266 68.7741 174.266ZM66.0021 168.668H71.3841C71.3841 167.138 70.3221 165.95 68.7561 165.95C67.2621 165.95 66.1461 167.066 66.0021 168.668Z" fill="white"/>
<path d="M76.1438 174.32L74.2718 165.536L75.9458 165.176L76.4678 167.822C76.4498 165.752 77.7098 164.582 79.5098 164.528L79.8698 166.184C77.8718 166.292 76.4678 167.624 77.0078 170.18L77.8178 173.96L76.1438 174.32Z" fill="white"/>
<path d="M80.0404 173.888L82.2004 164.744L83.8924 165.05L81.7144 174.194L80.0404 173.888ZM80.9224 162.224C80.9224 161.54 81.4444 161 82.1464 161C82.8304 161 83.3524 161.54 83.3524 162.224C83.3524 162.926 82.8304 163.448 82.1464 163.448C81.4444 163.448 80.9224 162.926 80.9224 162.224Z" fill="white"/>
<path d="M89.6234 174.23C86.9594 174.23 85.0334 172.232 85.0334 169.46C85.0334 166.724 86.9774 164.708 89.6234 164.708C91.9094 164.708 93.7454 166.184 93.8894 168.308L92.2154 168.452C92.0714 167.138 90.9734 166.184 89.6054 166.184C87.9494 166.184 86.7434 167.57 86.7434 169.46C86.7434 171.584 88.1114 172.718 89.6054 172.718C90.9014 172.718 92.0714 171.854 92.2334 170.396L93.9074 170.522C93.7814 172.718 91.9454 174.23 89.6234 174.23Z" fill="white"/>
<path d="M98.2498 174.158C96.6838 174.158 95.4058 173.24 95.4058 171.674C95.4058 170.036 96.7738 169.01 99.6538 168.722L101.292 168.56V168.236C101.292 166.76 100.248 166.058 99.1678 166.058C98.1418 166.058 97.0978 166.706 96.9538 168.038L95.3158 168.02C95.4778 165.806 97.3498 164.726 99.2038 164.708C101.094 164.672 102.984 165.878 102.984 168.326V171.386C102.984 172.358 103.092 173.33 103.218 173.96H101.544C101.454 173.564 101.382 173.042 101.382 172.106C100.986 173.438 99.5818 174.158 98.2498 174.158ZM97.0978 171.566C97.0978 172.52 97.8898 172.988 98.7718 172.988C99.9598 172.988 101.31 172.124 101.31 170.324V169.622L99.8338 169.784C97.9798 170 97.0978 170.594 97.0978 171.566Z" fill="white"/>
<path d="M65.6803 197.266C63.0523 197.266 61.1623 195.25 61.1623 192.46C61.1623 189.688 63.0523 187.654 65.6623 187.654C68.7583 187.654 70.2703 190.444 69.9463 192.946H62.8903C62.9443 194.692 64.0963 195.934 65.6983 195.934C66.9403 195.934 67.9843 195.214 68.3263 194.134L69.7843 194.368C69.3883 196.024 67.7683 197.266 65.6803 197.266ZM62.9083 191.668H68.2903C68.2903 190.138 67.2283 188.95 65.6623 188.95C64.1683 188.95 63.0523 190.066 62.9083 191.668Z" fill="white"/>
<path d="M74.3787 197.158C72.8127 197.158 71.5347 196.24 71.5347 194.674C71.5347 193.036 72.9027 192.01 75.7827 191.722L77.4207 191.56V191.236C77.4207 189.76 76.3767 189.058 75.2967 189.058C74.2707 189.058 73.2267 189.706 73.0827 191.038L71.4447 191.02C71.6067 188.806 73.4787 187.726 75.3327 187.708C77.2227 187.672 79.1127 188.878 79.1127 191.326V194.386C79.1127 195.358 79.2207 196.33 79.3467 196.96H77.6727C77.5827 196.564 77.5107 196.042 77.5107 195.106C77.1147 196.438 75.7107 197.158 74.3787 197.158ZM73.2267 194.566C73.2267 195.52 74.0187 195.988 74.9007 195.988C76.0887 195.988 77.4387 195.124 77.4387 193.324V192.622L75.9627 192.784C74.1087 193 73.2267 193.594 73.2267 194.566Z" fill="white"/>
<path d="M82.4544 197.32L80.5824 188.536L82.2564 188.176L82.7784 190.822C82.7604 188.752 84.0204 187.582 85.8204 187.528L86.1804 189.184C84.1824 189.292 82.7784 190.624 83.3184 193.18L84.1284 196.96L82.4544 197.32Z" fill="white"/>
<path d="M92.1199 196.996C89.8699 197.572 88.3579 196.402 88.3579 194.44C88.3579 193.9 88.4839 193.432 88.6099 192.856L89.4379 189.346L87.5659 188.932L87.8539 187.546L89.7619 187.978L90.3019 185.656L91.9399 185.998L91.3999 188.338L93.6859 188.842L93.3979 190.228L91.0759 189.706L90.2479 193.198C89.8519 194.89 90.3919 196.042 92.2639 195.574L92.1199 196.996Z" fill="white"/>
<path d="M95.1309 196.96V184.36H96.8409V189.976C97.2549 188.572 98.2629 187.744 99.7749 187.744C101.755 187.744 103.015 189.166 103.015 191.434V196.96H101.305V191.686C101.305 190.048 100.549 189.13 99.1989 189.13C97.6689 189.13 96.8409 190.264 96.8409 192.316V196.96H95.1309Z" fill="white"/>
<path d="M0.578125 219.96V210.978H2.28813L2.23413 213.21C2.59413 211.662 3.62013 210.744 5.22213 210.744C6.75213 210.744 7.85013 211.626 8.24613 213.102C8.62413 211.608 9.68612 210.744 11.2701 210.744C13.1961 210.744 14.4201 212.13 14.4201 214.344V219.96H12.7101V214.686C12.7101 213.048 11.9901 212.13 10.6941 212.13C9.23613 212.13 8.40812 213.264 8.40812 215.316V219.96H6.71613V214.686C6.71613 213.048 5.96013 212.13 4.62813 212.13C3.11613 212.13 2.28813 213.264 2.28813 215.316V219.96H0.578125Z" fill="white"/>
<path d="M18.81 220.05C17.082 220.05 16.038 219.096 16.038 217.566C16.038 216.99 16.164 216.36 16.704 215.1L19.962 207.18L21.456 207.774L18.198 215.694C17.82 216.504 17.73 216.918 17.73 217.314C17.73 218.142 18.27 218.628 19.224 218.628C19.44 218.628 19.602 218.592 19.746 218.556L19.62 219.942C19.386 219.996 19.098 220.05 18.81 220.05Z" fill="white"/>
<path d="M22.2695 219.96V207.36H23.9615V214.938L28.5515 210.978H30.5855L26.7155 214.398L30.3155 219.96H28.4075L25.5275 215.46L23.9615 216.828V219.96H22.2695Z" fill="white"/>
<path d="M32.0224 222.084C33.1024 222.372 34.2724 222.156 34.9924 220.608L35.3704 219.708L31.5184 210.978H33.3184L36.3064 217.818L39.0604 210.978H40.7884L36.7564 220.608C35.7484 223.056 34.1104 224.046 32.0224 223.524V222.084Z" fill="white"/>
<path d="M45.1257 219.96L42.0477 210.978H43.8837L46.1517 218.052L48.3117 210.978H50.2017L52.3797 218.052L54.6477 210.978H56.4477L53.3697 219.96H51.4617L49.2657 212.832L47.0517 219.96H45.1257Z" fill="white"/>
<path d="M58.1611 222.084C59.2411 222.372 60.4111 222.156 61.1311 220.608L61.5091 219.708L57.6571 210.978H59.4571L62.4451 217.818L65.1991 210.978H66.9271L62.8951 220.608C61.8871 223.056 60.2491 224.046 58.1611 223.524V222.084Z" fill="white"/>
<path d="M72.4936 223.668C70.3876 223.668 68.4976 222.534 68.1556 220.824L69.8296 220.698C70.1356 221.688 71.3236 222.318 72.5476 222.318C74.0056 222.318 75.3376 221.418 75.3376 219.528V217.998C74.8516 219.132 73.6096 220.032 72.0256 220.032C69.5236 220.032 67.5256 218.052 67.5256 215.37C67.5256 212.742 69.4516 210.708 72.0256 210.708C73.5736 210.708 74.8876 211.554 75.4096 212.814V210.978H77.0296V219.258C77.0296 222.372 74.7616 223.668 72.4936 223.668ZM69.2536 215.37C69.2536 217.17 70.5676 218.592 72.3496 218.592C74.0956 218.592 75.4276 217.188 75.4276 215.37C75.4276 213.606 74.1316 212.148 72.3496 212.148C70.6036 212.148 69.2536 213.498 69.2536 215.37Z" fill="white"/>
<path d="M81.5463 220.05C79.8183 220.05 78.7743 219.096 78.7743 217.566C78.7743 216.99 78.9003 216.36 79.4403 215.1L82.6983 207.18L84.1923 207.774L80.9343 215.694C80.5563 216.504 80.4663 216.918 80.4663 217.314C80.4663 218.142 81.0063 218.628 81.9604 218.628C82.1764 218.628 82.3383 218.592 82.4823 218.556L82.3563 219.942C82.1223 219.996 81.8343 220.05 81.5463 220.05Z" fill="white"/>
<path d="M91.0882 219.96L88.7302 216.828L86.4262 219.96H84.5902L87.8302 215.64L84.3022 210.978H86.2102L88.8742 214.488L91.4842 210.978H93.3022L89.7562 215.658L93.0142 219.96H91.0882Z" fill="white"/>
<path d="M94.7939 222.084C95.8739 222.372 97.0439 222.156 97.7639 220.608L98.1419 219.708L94.2899 210.978H96.0899L99.0779 217.818L101.832 210.978H103.56L99.5279 220.608C98.5199 223.056 96.8819 224.046 94.7939 223.524V222.084Z" fill="white"/>
</svg>
