<svg width="17" height="15" viewBox="0 0 17 15" fill="none" xmlns="http://www.w3.org/2000/svg">
<g style="mix-blend-mode:multiply">
<path d="M4.96735 13.1516C4.96162 13.1934 4.92976 13.2279 4.88849 13.2369C2.7164 13.7113 1.25409 12.4878 1.2929 10.4282C1.30463 9.8056 1.44805 9.27191 1.59382 8.61369L2.18816 6.05928C2.20059 6.00588 2.16803 5.95319 2.11503 5.94094L0.61133 5.59333C0.559022 5.58124 0.5265 5.52969 0.537805 5.47678L0.879868 3.87598C0.891693 3.82064 0.946752 3.78515 1.00152 3.79757L2.52981 4.14404C2.5838 4.15628 2.63825 4.12196 2.65102 4.06764L3.14833 1.95225C3.16111 1.89792 3.21557 1.8636 3.26957 1.87586L5.03422 2.27653C5.08744 2.28862 5.12021 2.34146 5.1077 2.39503L4.60875 4.5324C4.59627 4.58586 4.62887 4.63861 4.68194 4.65083L6.50078 5.0697C6.55313 5.08176 6.58569 5.13334 6.57438 5.18627L6.23237 6.78684C6.22053 6.84224 6.16537 6.87773 6.11056 6.86521L4.28387 6.44799C4.22981 6.43564 4.17523 6.47002 4.16249 6.52445L3.56923 9.05844C3.21598 10.5823 3.4393 11.6847 5.07203 11.4142C5.13942 11.403 5.1995 11.4585 5.19023 11.5261L4.96735 13.1516Z" fill="#21E37A"/>
<path d="M6.75838 13.1501C6.70315 13.1501 6.65922 13.1053 6.66026 13.0501L6.89112 0.797248C6.89216 0.74203 6.93778 0.697266 6.99301 0.697266H8.82682C8.88205 0.697266 8.92597 0.742029 8.92493 0.797248L8.79685 7.59506C8.79519 7.68334 8.90043 7.7283 8.96504 7.66691L12.5821 4.22997C12.601 4.21193 12.6262 4.20184 12.6521 4.20184H14.8173C14.9069 4.20184 14.9493 4.31054 14.8841 4.37323L11.587 7.54558C11.5539 7.57744 11.546 7.62724 11.5679 7.66673L14.5272 13.0003C14.5641 13.067 14.5145 13.1501 14.4376 13.1501H12.368C12.332 13.1501 12.2991 13.1307 12.2819 13.0993L10.1152 9.13557C10.084 9.07856 10.0068 9.06742 9.95894 9.11302L8.77741 10.2387C8.75764 10.2575 8.7462 10.2834 8.74569 10.3104L8.69407 13.0501C8.69303 13.1053 8.64742 13.1501 8.59219 13.1501H6.75838Z" fill="#21E37A"/>
</g>
<g style="mix-blend-mode:color-burn">
<path d="M6.06194 13.2251C6.05662 13.2671 6.02479 13.3014 5.98333 13.3099C3.5956 13.8013 1.95549 12.5428 1.95549 10.4229C1.95549 9.78264 2.10249 9.23382 2.24948 8.55693L2.85158 5.92992C2.86404 5.87556 2.82962 5.82152 2.7751 5.80981L1.09722 5.4495C1.04344 5.43795 1.00908 5.38513 1.02033 5.33129L1.36539 3.67897C1.3767 3.62484 1.42978 3.59016 1.48389 3.60155L3.20095 3.96319C3.25422 3.97441 3.30668 3.94095 3.31898 3.88791L3.82595 1.70064C3.83825 1.64759 3.89073 1.61413 3.94401 1.62537L5.91667 2.04147C5.97141 2.05302 6.00602 2.10722 5.99349 2.16174L5.48783 4.36007C5.47532 4.41448 5.50978 4.4686 5.56437 4.48028L7.59111 4.91386C7.64493 4.92538 7.67933 4.97822 7.66807 5.03209L7.32306 6.68419C7.31174 6.73838 7.25856 6.77306 7.20441 6.76157L5.15693 6.32714C5.10358 6.31582 5.051 6.34933 5.03874 6.40248L4.43608 9.01429C4.07743 10.5854 4.34882 11.721 6.15549 11.4346C6.22256 11.424 6.28318 11.4799 6.27464 11.5473L6.06194 13.2251Z" fill="#0D0442"/>
<path d="M8.026 13.2219C7.97077 13.2219 7.926 13.1772 7.926 13.1219V0.516016C7.926 0.460788 7.97077 0.416016 8.026 0.416016H10.0677C10.123 0.416016 10.1677 0.460787 10.1677 0.516016V7.527C10.1677 7.61365 10.2704 7.65929 10.3347 7.60123L14.2735 4.04574C14.2919 4.02915 14.3157 4.01997 14.3405 4.01997H16.7456C16.8368 4.01997 16.8804 4.13219 16.813 4.19378L13.2422 7.45839C13.2068 7.49076 13.1994 7.54371 13.2245 7.58457L16.5971 13.0696C16.638 13.1362 16.5901 13.2219 16.5119 13.2219H14.2114C14.1764 13.2219 14.144 13.2037 14.1259 13.1738L11.6454 9.08131C11.6128 9.02757 11.5393 9.01683 11.4928 9.059L10.2006 10.2285C10.1797 10.2475 10.1677 10.2744 10.1677 10.3027V13.1219C10.1677 13.1772 10.123 13.2219 10.0677 13.2219H8.026Z" fill="#0D0442"/>
</g>
<g style="mix-blend-mode:hard-light">
<path d="M4.96735 13.3113C4.96162 13.3531 4.92976 13.3875 4.88849 13.3966C2.7164 13.871 1.25409 12.6475 1.2929 10.5879C1.30463 9.96527 1.44805 9.43158 1.59382 8.77336L2.18816 6.21895C2.20059 6.16554 2.16803 6.11286 2.11503 6.10061L0.61133 5.753C0.559022 5.74091 0.5265 5.68935 0.537805 5.63645L0.879868 4.03565C0.891693 3.98031 0.946752 3.94482 1.00152 3.95724L2.52981 4.30371C2.5838 4.31595 2.63825 4.28163 2.65102 4.22731L3.14833 2.11192C3.16111 2.05758 3.21557 2.02327 3.26957 2.03553L5.03422 2.4362C5.08744 2.44828 5.12021 2.50112 5.1077 2.55469L4.60875 4.69207C4.59627 4.74553 4.62887 4.79828 4.68194 4.8105L6.50078 5.22937C6.55313 5.24143 6.58569 5.293 6.57438 5.34594L6.23237 6.9465C6.22053 7.0019 6.16537 7.0374 6.11056 7.02488L4.28387 6.60766C4.22981 6.59531 4.17523 6.62969 4.16249 6.68411L3.56923 9.2181C3.21598 10.742 3.4393 11.8444 5.07203 11.5738C5.13942 11.5627 5.1995 11.6182 5.19023 11.6858L4.96735 13.3113Z" fill="#916BC0"/>
<path d="M6.75838 13.3097C6.70315 13.3097 6.65922 13.265 6.66026 13.2098L6.89112 0.956916C6.89216 0.901698 6.93778 0.856934 6.99301 0.856934H8.82682C8.88205 0.856934 8.92597 0.901697 8.92493 0.956916L8.79685 7.75473C8.79519 7.84301 8.90043 7.88797 8.96504 7.82658L12.5821 4.38964C12.601 4.3716 12.6262 4.36151 12.6521 4.36151H14.8173C14.9069 4.36151 14.9493 4.47021 14.8841 4.5329L11.587 7.70524C11.5539 7.73711 11.546 7.78691 11.5679 7.82639L14.5272 13.16C14.5641 13.2267 14.5145 13.3097 14.4376 13.3097H12.368C12.332 13.3097 12.2991 13.2903 12.2819 13.259L10.1152 9.29524C10.084 9.23823 10.0068 9.22709 9.95894 9.27269L8.77741 10.3983C8.75764 10.4172 8.7462 10.4431 8.74569 10.4701L8.69407 13.2098C8.69303 13.265 8.64742 13.3097 8.59219 13.3097H6.75838Z" fill="#916BC0"/>
</g>
<g style="mix-blend-mode:hard-light">
<path d="M4.5917 12.8856C4.58648 12.9274 4.55503 12.9619 4.51388 12.9709C2.34999 13.4458 0.875219 12.2209 0.889953 10.1588C0.894407 9.53543 1.03143 9.00108 1.16934 8.34206L1.73321 5.78436C1.74498 5.73098 1.71183 5.67833 1.65874 5.66606L0.152831 5.31804C0.100423 5.30593 0.0673265 5.2544 0.0779833 5.20152L0.400995 3.59859C0.412157 3.5432 0.466844 3.50768 0.52179 3.52013L2.05186 3.86693C2.10602 3.87921 2.16011 3.84486 2.17223 3.79049L2.64426 1.67253C2.65638 1.61814 2.71049 1.58379 2.76467 1.59609L4.53163 1.9972C4.58495 2.0093 4.61831 2.06211 4.60646 2.11565L4.13296 4.256C4.12114 4.30943 4.15433 4.36215 4.2075 4.37439L6.02899 4.79377C6.08144 4.80584 6.11458 4.85739 6.10391 4.9103L5.78095 6.51299C5.76978 6.56844 5.71499 6.60397 5.66 6.59141L3.83107 6.17378C3.77683 6.16139 3.72261 6.1958 3.71052 6.25028L3.14755 8.78735C2.81251 10.313 3.04839 11.4168 4.67582 11.146C4.74309 11.1348 4.80384 11.1903 4.79538 11.2579L4.5917 12.8856Z" fill="#F1EA47"/>
<path d="M6.38067 12.884C6.32544 12.884 6.28099 12.8392 6.28138 12.784L6.36904 0.516014C6.36943 0.460786 6.41453 0.416016 6.46975 0.416016H8.30109C8.35632 0.416016 8.40077 0.460786 8.40038 0.516013L8.35175 7.32207C8.35112 7.41042 8.45699 7.45536 8.52086 7.39385L12.0931 3.95307C12.1118 3.93497 12.1369 3.92485 12.1629 3.92485H14.3254C14.415 3.92485 14.4586 4.03345 14.3943 4.09619L11.1378 7.27276C11.1051 7.30461 11.0979 7.35432 11.1202 7.39377L14.1383 12.7343C14.176 12.801 14.1272 12.884 14.0504 12.884H11.9835C11.9474 12.884 11.9143 12.8645 11.8968 12.8331L9.68657 8.86477C9.65475 8.80764 9.57726 8.79649 9.52991 8.84221L8.36312 9.96907C8.34362 9.9879 8.33252 10.0138 8.33232 10.0408L8.31272 12.784C8.31233 12.8392 8.26724 12.884 8.21201 12.884H6.38067Z" fill="#F1EA47"/>
</g>
<g style="mix-blend-mode:soft-light">
<path d="M5.56462 14.0462C5.56174 14.0882 5.53228 14.1244 5.49169 14.1357C3.35782 14.7311 1.81672 13.5907 1.71589 11.5311C1.6854 10.9084 1.79227 10.3672 1.89303 9.7015L2.3127 7.11623C2.32145 7.06227 2.28541 7.01156 2.23171 7.00229L0.708671 6.73916C0.655666 6.73 0.619735 6.68041 0.627412 6.62702L0.860097 5.00851C0.868137 4.95258 0.920749 4.91406 0.976306 4.92341L2.52341 5.18396C2.57817 5.19319 2.63025 5.15586 2.6393 5.1009L2.99192 2.95982C3.00097 2.90484 3.05307 2.86751 3.10785 2.87676L4.89451 3.17827C4.94842 3.18736 4.98469 3.23822 4.97586 3.29234L4.62304 5.45585C4.61423 5.50986 4.65033 5.56064 4.70409 5.56988L6.54622 5.88657C6.59926 5.89569 6.63524 5.9453 6.62756 5.99873L6.39491 7.61699C6.38686 7.67298 6.33415 7.71152 6.27854 7.70206L4.42908 7.38753C4.37423 7.3782 4.32203 7.41559 4.31301 7.47066L3.89308 10.0353C3.64406 11.5773 3.94142 12.6661 5.55112 12.3046C5.61766 12.2897 5.68143 12.3417 5.67676 12.4097L5.56462 14.0462Z" fill="#A47600"/>
<path d="M7.35068 13.9444C7.29554 13.9475 7.24865 13.9052 7.24595 13.8501L6.64604 1.59649C6.64334 1.54133 6.68585 1.4941 6.74099 1.49101L8.56945 1.38843C8.6246 1.38534 8.67149 1.42755 8.67419 1.48271L9.00701 8.2808C9.01133 8.36905 9.11956 8.40799 9.17987 8.343L12.5537 4.70753C12.5714 4.68841 12.5958 4.6769 12.6218 4.67545L14.781 4.55431C14.8703 4.5493 14.92 4.65529 14.8593 4.72152L11.7859 8.07552C11.7551 8.10915 11.7507 8.15918 11.7751 8.19732L15.0877 13.3604C15.1291 13.4249 15.0851 13.5105 15.0084 13.5148L12.9447 13.6305C12.9087 13.6325 12.8745 13.615 12.8553 13.5846L10.4262 9.74631C10.3912 9.69106 10.3132 9.68426 10.2685 9.73256L9.16668 10.923C9.14827 10.9429 9.13863 10.9693 9.13995 10.9963L9.2741 13.7363C9.2768 13.7915 9.23429 13.8387 9.17914 13.8418L7.35068 13.9444Z" fill="#A47600"/>
</g>
<g style="mix-blend-mode:hard-light">
<path d="M5.81335 12.4624C5.80783 12.5041 5.77614 12.5386 5.73492 12.5476C3.56651 13.0223 2.09928 11.798 2.12819 9.73718C2.13693 9.11415 2.2777 8.58011 2.42021 7.92147L3.00195 5.36533C3.0141 5.31194 2.98131 5.25928 2.92828 5.24702L1.42388 4.89919C1.37153 4.88709 1.33878 4.83555 1.34981 4.78266L1.684 3.18074C1.69555 3.12537 1.75046 3.08987 1.80531 3.10231L3.33408 3.44895C3.38814 3.46121 3.44244 3.42687 3.45494 3.37253L3.9418 1.25578C3.9543 1.20142 4.00862 1.16709 4.0627 1.17937L5.82802 1.58027C5.88128 1.59237 5.91429 1.64519 5.90206 1.69875L5.41363 3.83768C5.40143 3.89112 5.43427 3.94386 5.48737 3.95609L7.30704 4.37522C7.35943 4.38729 7.39223 4.43885 7.38119 4.49178L7.04705 6.09346C7.03549 6.14888 6.98047 6.18439 6.92559 6.17185L5.09827 5.75442C5.04413 5.74205 4.9897 5.77644 4.97723 5.8309L4.3965 8.3665C4.05079 9.8913 4.27924 10.9944 5.90954 10.7238C5.97689 10.7126 6.03725 10.7681 6.02831 10.8357L5.81335 12.4624Z" fill="#F56846"/>
<path d="M7.6033 12.4607C7.54807 12.4607 7.50393 12.416 7.5047 12.3608L7.67666 0.0999907C7.67744 0.0447676 7.72284 0 7.77807 0L9.61058 0C9.66581 0 9.70995 0.0447671 9.70918 0.0999902L9.61377 6.90213C9.61254 6.99045 9.71805 7.0354 9.78235 6.97394L13.3804 3.53499C13.3993 3.51692 13.4244 3.50681 13.4504 3.50681H15.6142C15.7038 3.50681 15.7466 3.61546 15.6818 3.67817L12.4018 6.85274C12.3689 6.88459 12.3613 6.93434 12.3834 6.97381L15.3664 12.3111C15.4037 12.3777 15.3544 12.4607 15.2776 12.4607H13.2094C13.1733 12.4607 13.1403 12.4413 13.123 12.4099L10.9387 8.44379C10.9073 8.38672 10.8299 8.37557 10.7823 8.42123L9.60699 9.54752C9.58735 9.56635 9.57605 9.59222 9.57567 9.61924L9.53722 12.3608C9.53644 12.416 9.49104 12.4607 9.43581 12.4607H7.6033Z" fill="#F56846"/>
</g>
</svg>
